M48
; DRILL file {KiCad (5.1.9-0-10_14)} date Wednesday, January 20, 2021 at 06:35:24 PM
; FORMAT={-:-/ absolute / inch / decimal}
; #@! TF.CreationDate,2021-01-20T18:35:24+01:00
; #@! TF.GenerationSoftware,Kicad,Pcbnew,(5.1.9-0-10_14)
; #@! TF.FileFunction,Plated,1,2,PTH
FMAT,2
INCH
T1C0.0157
T2C0.0236
T3C0.0295
T4C0.0315
T5C0.0394
T6C0.0433
T7C0.0512
T8C0.0535
T9C0.0591
T10C0.0630
T11C0.0866
%
G90
G05
T1
X5.135Y-0.9819
X5.135Y-5.05
X5.15Y-1.175
X5.1541Y-0.936
X5.1541Y-1.0278
X5.1541Y-5.0041
X5.1541Y-5.0959
X5.2Y-0.9169
X5.2Y-1.0469
X5.2Y-4.985
X5.2Y-5.115
X5.2459Y-0.936
X5.2459Y-1.0278
X5.2459Y-5.0041
X5.2459Y-5.0959
X5.265Y-0.9819
X5.265Y-5.05
X5.325Y-1.475
X5.366Y-3.525
X5.366Y-4.1468
X5.55Y-3.0004
X5.6033Y-2.9953
X5.65Y-2.61
X5.6768Y-1.8766
X5.7371Y-4.1839
X5.7383Y-4.7242
X5.7501Y-2.299
X5.7675Y-3.97
X5.768Y-3.0169
X5.7811Y-4.1972
X5.7925Y-2.6125
X5.8417Y-2.8625
X5.8467Y-2.439
X5.8861Y-4.7748
X5.8878Y-3.8224
X5.9329Y-4.5691
X5.97Y-3.5354
X6.0892Y-3.8467
X6.09Y-1.94
X6.1026Y-2.7813
X6.1213Y-4.6128
X6.122Y-2.9789
X6.122Y-3.1127
X6.1784Y-3.0169
X6.1859Y-2.6767
X6.2187Y-1.0661
X6.3195Y-2.621
X6.3242Y-3.8757
X6.332Y-2.8656
X6.4137Y-3.5714
X6.415Y-2.215
X6.4522Y-4.025
X6.455Y-3.896
X6.4592Y-4.073
X6.4594Y-2.8138
X6.4596Y-2.7331
X6.4767Y-3.795
X6.4821Y-3.937
X6.4922Y-2.5099
X6.5212Y-3.7845
X6.549Y-3.3941
X6.5625Y-1.255
X6.5792Y-4.2167
X6.65Y-2.215
X6.6555Y-3.8327
X6.6559Y-2.5825
X6.6672Y-3.7231
X6.686Y-4.4027
X6.7015Y-2.9839
X6.7717Y-2.5993
X6.8123Y-3.0798
X6.822Y-3.5354
X6.825Y-1.825
X6.8525Y-2.9298
X6.877Y-1.4805
X6.9271Y-2.7602
X6.9831Y-3.0441
X7.0705Y-3.0076
X7.1113Y-1.6792
X7.1168Y-3.9909
X7.1168Y-4.5074
X7.1194Y-3.5375
X7.1207Y-3.275
X7.1516Y-3.3379
X7.172Y-2.748
X7.1875Y-3.7225
X7.2034Y-4.498
X7.205Y-2.315
X7.232Y-3.3385
X7.2381Y-1.814
X7.2402Y-3.4629
X7.26Y-3.4267
X7.27Y-4.15
X7.2771Y-1.1658
X7.2819Y-1.7699
X7.337Y-3.7455
X7.345Y-3.95
X7.3612Y-3.4912
X7.3738Y-3.2619
X7.4Y-2.6
X7.403Y-3.5342
X7.4116Y-3.8066
X7.4532Y-3.0318
X7.5225Y-3.939
X7.5404Y-3.3802
X7.5404Y-3.74
X7.55Y-1.0025
X7.5767Y-3.4544
X7.5809Y-3.6696
X7.5856Y-2.9443
X7.5938Y-1.2412
X7.6356Y-3.2711
X7.64Y-2.315
X7.6409Y-3.4163
X7.6475Y-4.165
X7.6776Y-4.0474
X7.682Y-3.8305
X7.73Y-3.7793
X7.7716Y-2.9129
X7.775Y-3.05
X7.873Y-3.7965
X7.8962Y-4.015
X7.92Y-3.4163
X7.943Y-2.5483
X7.9726Y-1.1732
X8.0Y-4.905
X8.0713Y-3.4625
X8.0809Y-3.2835
X8.0809Y-3.3453
X8.145Y-3.1
X8.1709Y-3.16
X8.1816Y-2.263
X8.205Y-1.29
X8.2324Y-3.6737
X8.26Y-3.995
X8.297Y-2.7935
X8.3083Y-3.2835
X8.3084Y-3.1703
X8.3135Y-4.1128
X8.3135Y-4.6458
X8.3169Y-3.6614
X8.325Y-3.0475
X8.3859Y-3.74
X8.415Y-3.86
X8.4906Y-1.7693
X8.5138Y-2.8117
X8.5138Y-3.4991
X8.55Y-3.705
X8.5517Y-3.9283
X8.6165Y-2.1023
X8.6318Y-3.7897
X8.635Y-2.705
X8.655Y-2.3675
X8.7597Y-1.9692
X8.7634Y-1.8315
X8.797Y-4.002
X8.8626Y-2.0875
X8.8701Y-2.7072
X8.8925Y-3.7425
X8.9778Y-3.0301
X9.0472Y-4.5778
X9.0472Y-4.7028
X9.0543Y-2.9857
X9.07Y-1.145
X9.07Y-1.34
X9.0781Y-0.9819
X9.0781Y-5.05
X9.0872Y-2.9495
X9.0972Y-0.936
X9.0972Y-1.0278
X9.0972Y-5.0041
X9.0972Y-5.0959
X9.1431Y-0.9169
X9.1431Y-1.0469
X9.1431Y-4.985
X9.1431Y-5.115
X9.175Y-4.575
X9.175Y-4.7
X9.189Y-0.936
X9.189Y-1.0278
X9.189Y-5.0041
X9.189Y-5.0959
X9.2Y-2.8696
X9.2081Y-0.9819
X9.2081Y-5.05
X9.2986Y-1.2225
T2
X9.075Y-2.3009
X9.075Y-2.36
T3
X9.1Y-3.23
X9.1Y-3.405
X9.15Y-3.23
X9.15Y-3.405
X9.2Y-3.23
X9.2Y-3.405
T4
X5.48Y-1.33
X5.48Y-1.63
X5.5Y-4.525
X5.5Y-4.65
X5.55Y-4.85
X5.57Y-1.7713
X5.57Y-1.85
X5.57Y-2.025
X5.57Y-2.1037
X5.605Y-1.33
X5.605Y-1.63
X5.65Y-4.85
X5.65Y-5.05
X5.65Y-5.1287
X5.73Y-1.33
X5.73Y-1.63
X5.75Y-4.85
X5.8Y-4.525
X5.8Y-4.65
X5.855Y-1.33
X5.855Y-1.63
X5.92Y-1.7713
X5.92Y-1.85
X5.92Y-2.0213
X5.92Y-2.1
X5.97Y-2.425
X5.97Y-2.55
X5.97Y-2.675
X5.97Y-2.8
X5.97Y-2.925
X5.97Y-3.65
X5.97Y-3.775
X5.97Y-3.9
X5.97Y-4.025
X5.97Y-4.15
X5.98Y-1.33
X5.98Y-1.63
X6.27Y-2.425
X6.27Y-2.55
X6.27Y-2.675
X6.27Y-2.8
X6.27Y-2.925
X6.27Y-3.65
X6.27Y-3.775
X6.27Y-3.9
X6.27Y-4.025
X6.27Y-4.15
X6.3Y-4.525
X6.3Y-4.65
X6.3Y-4.775
X6.3Y-4.9
X6.3Y-5.025
X6.6Y-4.525
X6.6Y-4.65
X6.6Y-4.775
X6.6Y-4.9
X6.6Y-5.025
X6.675Y-1.425
X6.715Y-2.425
X6.715Y-2.55
X6.715Y-2.675
X6.715Y-2.8
X6.715Y-2.925
X6.715Y-3.65
X6.715Y-3.775
X6.715Y-3.9
X6.715Y-4.025
X6.715Y-4.15
X6.75Y-4.525
X6.7734Y-1.425
X6.775Y-4.775
X6.775Y-5.075
X6.9Y-4.775
X6.9Y-5.075
X7.015Y-2.425
X7.015Y-2.55
X7.015Y-2.675
X7.015Y-2.8
X7.015Y-2.925
X7.015Y-3.65
X7.015Y-3.775
X7.015Y-3.9
X7.015Y-4.025
X7.015Y-4.15
X7.025Y-4.775
X7.025Y-5.075
X7.05Y-4.525
X7.4Y-2.775
X7.4Y-2.9
X7.675Y-1.425
X7.7Y-2.775
X7.7Y-2.9
X7.725Y-1.7266
X7.725Y-1.825
X7.7734Y-1.425
X8.025Y-1.475
X8.025Y-1.65
X8.025Y-1.775
X8.025Y-1.9
X8.025Y-2.025
X8.025Y-2.15
X8.025Y-2.35
X8.025Y-2.475
X8.025Y-2.598
X8.125Y-4.775
X8.125Y-5.075
X8.2Y-4.525
X8.25Y-4.775
X8.25Y-5.075
X8.325Y-1.475
X8.325Y-1.65
X8.325Y-1.775
X8.325Y-1.9
X8.325Y-2.025
X8.325Y-2.15
X8.325Y-2.35
X8.325Y-2.475
X8.325Y-2.6
X8.375Y-4.775
X8.375Y-5.075
X8.4463Y-1.35
X8.5Y-4.525
X8.525Y-1.35
X8.675Y-1.35
X8.7537Y-1.35
X8.875Y-1.475
X8.875Y-1.65
X8.875Y-1.775
X8.875Y-1.9
X8.875Y-2.025
X8.875Y-2.15
X9.025Y-3.635
X9.025Y-3.935
X9.175Y-1.475
X9.175Y-1.65
X9.175Y-1.775
X9.175Y-1.9
X9.175Y-2.025
X9.175Y-2.15
X9.25Y-3.7098
X9.25Y-3.7886
X9.25Y-3.8673
T5
X5.4756Y-2.676
X5.4756Y-2.776
X5.4756Y-2.876
X5.4756Y-2.976
X5.4756Y-3.076
X5.4756Y-3.176
X5.4756Y-3.276
X5.4756Y-3.376
X5.4756Y-3.476
X5.4756Y-3.576
X5.4756Y-3.676
X5.4756Y-3.776
X5.4756Y-3.876
X5.4756Y-3.976
X7.2906Y-4.825
X7.2906Y-4.9234
X7.2906Y-5.0219
X7.8614Y-4.825
X7.8614Y-5.0219
X8.7945Y-3.176
X8.7945Y-3.276
X8.7945Y-3.376
X8.7945Y-3.476
X9.255Y-2.515
X9.255Y-2.615
X9.255Y-2.715
X9.255Y-2.815
X9.255Y-2.915
X9.255Y-3.015
T6
X5.15Y-1.625
X5.15Y-1.725
X5.15Y-1.9
X5.15Y-2.0
X5.15Y-2.175
X5.15Y-2.275
X5.15Y-2.45
X5.15Y-2.55
X5.15Y-4.675
X5.15Y-4.775
X6.35Y-0.925
X6.45Y-0.925
X6.675Y-0.925
X6.775Y-0.925
X6.875Y-0.925
X6.975Y-0.925
X7.2Y-0.925
X7.3Y-0.925
X7.4Y-0.925
X7.5Y-0.925
X7.6Y-0.925
X7.7Y-0.925
X7.8Y-0.925
X8.55Y-0.925
X8.65Y-0.925
X8.825Y-0.925
X8.925Y-0.925
T7
X5.475Y-0.935
X5.6719Y-0.935
X6.1781Y-1.425
X6.375Y-1.425
X7.1281Y-1.425
X7.325Y-1.425
T8
X5.15Y-2.775
X5.15Y-2.875
X5.15Y-2.975
X5.15Y-3.15
X5.15Y-3.25
X5.15Y-3.35
X5.15Y-3.525
X5.15Y-3.625
X5.15Y-3.725
X5.15Y-3.9
X5.15Y-4.0
X5.15Y-4.1
X5.15Y-4.275
X5.15Y-4.375
X5.15Y-4.475
X5.925Y-0.925
X6.025Y-0.925
X6.125Y-0.925
T9
X9.25Y-3.6272
X9.25Y-3.95
T10
X6.245Y-2.075
X6.845Y-2.075
X7.15Y-2.075
X7.75Y-2.075
T11
X5.2Y-0.9819
X5.2Y-5.05
X9.1431Y-0.9819
X9.1431Y-5.05
T9
G00X7.5602Y-4.703
M15
G01X7.6114Y-4.703
M16
G05
G00X7.5602Y-5.1439
M15
G01X7.6114Y-5.1439
M16
G05
T0
M30
