G04 #@! TF.GenerationSoftware,KiCad,Pcbnew,(5.1.9-0-10_14)*
G04 #@! TF.CreationDate,2021-01-20T18:33:34+01:00*
G04 #@! TF.ProjectId,3DPrinter_Watercooling,33445072-696e-4746-9572-5f5761746572,rev?*
G04 #@! TF.SameCoordinates,Original*
G04 #@! TF.FileFunction,Soldermask,Bot*
G04 #@! TF.FilePolarity,Negative*
%FSLAX46Y46*%
G04 Gerber Fmt 4.6, Leading zero omitted, Abs format (unit mm)*
G04 Created by KiCad (PCBNEW (5.1.9-0-10_14)) date 2021-01-20 18:33:34*
%MOMM*%
%LPD*%
G01*
G04 APERTURE LIST*
%ADD10C,1.700000*%
%ADD11R,1.600000X1.600000*%
%ADD12C,1.600000*%
%ADD13R,1.200000X1.200000*%
%ADD14C,1.200000*%
%ADD15R,3.200000X3.200000*%
%ADD16O,3.200000X3.200000*%
%ADD17C,0.700000*%
%ADD18C,4.400000*%
%ADD19C,2.500000*%
%ADD20R,1.700000X1.700000*%
%ADD21O,1.700000X1.700000*%
%ADD22C,2.040000*%
%ADD23C,1.650000*%
%ADD24C,2.600000*%
%ADD25O,1.050000X1.500000*%
%ADD26R,1.050000X1.500000*%
%ADD27O,1.600000X1.600000*%
%ADD28C,1.440000*%
%ADD29R,2.500000X1.500000*%
%ADD30O,2.500000X1.500000*%
%ADD31O,3.500000X2.200000*%
%ADD32C,2.000000*%
%ADD33R,3.200000X2.000000*%
%ADD34R,2.000000X2.000000*%
G04 APERTURE END LIST*
D10*
X223380000Y-80670000D03*
X223380000Y-83210000D03*
X223380000Y-85750000D03*
X223380000Y-88290000D03*
G36*
G01*
X138230000Y-68395000D02*
X138230000Y-67545000D01*
G75*
G02*
X138655000Y-67120000I425000J0D01*
G01*
X139505000Y-67120000D01*
G75*
G02*
X139930000Y-67545000I0J-425000D01*
G01*
X139930000Y-68395000D01*
G75*
G02*
X139505000Y-68820000I-425000J0D01*
G01*
X138655000Y-68820000D01*
G75*
G02*
X138230000Y-68395000I0J425000D01*
G01*
G37*
X139080000Y-70510000D03*
X139080000Y-73050000D03*
X139080000Y-75590000D03*
X139080000Y-78130000D03*
X139080000Y-80670000D03*
X139080000Y-83210000D03*
X139080000Y-85750000D03*
X139080000Y-88290000D03*
X139080000Y-90830000D03*
X139080000Y-93370000D03*
X139080000Y-95910000D03*
X139080000Y-98450000D03*
X139080000Y-100990000D03*
D11*
X169545000Y-36195000D03*
D12*
X172045000Y-36195000D03*
D13*
X230505000Y-59944000D03*
D14*
X230505000Y-58444000D03*
D12*
X197445000Y-36195000D03*
D11*
X194945000Y-36195000D03*
X196215000Y-43855000D03*
D12*
X196215000Y-46355000D03*
D11*
X143510000Y-128270000D03*
D12*
X143510000Y-130270000D03*
X150368000Y-51340000D03*
D11*
X150368000Y-53340000D03*
D12*
X216535000Y-34290000D03*
D11*
X214535000Y-34290000D03*
D12*
X150368000Y-44990000D03*
D11*
X150368000Y-46990000D03*
X220345000Y-34290000D03*
D12*
X222345000Y-34290000D03*
D11*
X141478000Y-53435000D03*
D12*
X141478000Y-51435000D03*
D11*
X141478000Y-46990000D03*
D12*
X141478000Y-44990000D03*
D15*
X173863000Y-52705000D03*
D16*
X158623000Y-52705000D03*
X181610000Y-52705000D03*
D15*
X196850000Y-52705000D03*
D17*
X133246726Y-23773274D03*
X132080000Y-23290000D03*
X130913274Y-23773274D03*
X130430000Y-24940000D03*
X130913274Y-26106726D03*
X132080000Y-26590000D03*
X133246726Y-26106726D03*
X133730000Y-24940000D03*
D18*
X132080000Y-24940000D03*
D17*
X233401726Y-23773274D03*
X232235000Y-23290000D03*
X231068274Y-23773274D03*
X230585000Y-24940000D03*
X231068274Y-26106726D03*
X232235000Y-26590000D03*
X233401726Y-26106726D03*
X233885000Y-24940000D03*
D18*
X232235000Y-24940000D03*
X232235000Y-128270000D03*
D17*
X233885000Y-128270000D03*
X233401726Y-129436726D03*
X232235000Y-129920000D03*
X231068274Y-129436726D03*
X230585000Y-128270000D03*
X231068274Y-127103274D03*
X232235000Y-126620000D03*
X233401726Y-127103274D03*
X133246726Y-127103274D03*
X132080000Y-126620000D03*
X130913274Y-127103274D03*
X130430000Y-128270000D03*
X130913274Y-129436726D03*
X132080000Y-129920000D03*
X133246726Y-129436726D03*
X133730000Y-128270000D03*
D18*
X132080000Y-128270000D03*
D19*
X144065000Y-23749000D03*
G36*
G01*
X137815000Y-24374000D02*
X137815000Y-23124000D01*
G75*
G02*
X138440000Y-22499000I625000J0D01*
G01*
X139690000Y-22499000D01*
G75*
G02*
X140315000Y-23124000I0J-625000D01*
G01*
X140315000Y-24374000D01*
G75*
G02*
X139690000Y-24999000I-625000J0D01*
G01*
X138440000Y-24999000D01*
G75*
G02*
X137815000Y-24374000I0J625000D01*
G01*
G37*
D20*
X235077000Y-76581000D03*
D21*
X235077000Y-74041000D03*
X235077000Y-71501000D03*
X235077000Y-68961000D03*
X235077000Y-66421000D03*
X235077000Y-63881000D03*
G36*
G01*
X131320000Y-114685000D02*
X130300000Y-114685000D01*
G75*
G02*
X129790000Y-114175000I0J510000D01*
G01*
X129790000Y-113155000D01*
G75*
G02*
X130300000Y-112645000I510000J0D01*
G01*
X131320000Y-112645000D01*
G75*
G02*
X131830000Y-113155000I0J-510000D01*
G01*
X131830000Y-114175000D01*
G75*
G02*
X131320000Y-114685000I-510000J0D01*
G01*
G37*
D22*
X130810000Y-111125000D03*
X130810000Y-108585000D03*
G36*
G01*
X131320000Y-105160000D02*
X130300000Y-105160000D01*
G75*
G02*
X129790000Y-104650000I0J510000D01*
G01*
X129790000Y-103630000D01*
G75*
G02*
X130300000Y-103120000I510000J0D01*
G01*
X131320000Y-103120000D01*
G75*
G02*
X131830000Y-103630000I0J-510000D01*
G01*
X131830000Y-104650000D01*
G75*
G02*
X131320000Y-105160000I-510000J0D01*
G01*
G37*
X130810000Y-101600000D03*
X130810000Y-99060000D03*
G36*
G01*
X131320000Y-95635000D02*
X130300000Y-95635000D01*
G75*
G02*
X129790000Y-95125000I0J510000D01*
G01*
X129790000Y-94105000D01*
G75*
G02*
X130300000Y-93595000I510000J0D01*
G01*
X131320000Y-93595000D01*
G75*
G02*
X131830000Y-94105000I0J-510000D01*
G01*
X131830000Y-95125000D01*
G75*
G02*
X131320000Y-95635000I-510000J0D01*
G01*
G37*
X130810000Y-92075000D03*
X130810000Y-89535000D03*
X130810000Y-80010000D03*
X130810000Y-82550000D03*
G36*
G01*
X131320000Y-86110000D02*
X130300000Y-86110000D01*
G75*
G02*
X129790000Y-85600000I0J510000D01*
G01*
X129790000Y-84580000D01*
G75*
G02*
X130300000Y-84070000I510000J0D01*
G01*
X131320000Y-84070000D01*
G75*
G02*
X131830000Y-84580000I0J-510000D01*
G01*
X131830000Y-85600000D01*
G75*
G02*
X131320000Y-86110000I-510000J0D01*
G01*
G37*
G36*
G01*
X182055000Y-23907500D02*
X182055000Y-23082500D01*
G75*
G02*
X182467500Y-22670000I412500J0D01*
G01*
X183292500Y-22670000D01*
G75*
G02*
X183705000Y-23082500I0J-412500D01*
G01*
X183705000Y-23907500D01*
G75*
G02*
X183292500Y-24320000I-412500J0D01*
G01*
X182467500Y-24320000D01*
G75*
G02*
X182055000Y-23907500I0J412500D01*
G01*
G37*
D23*
X185420000Y-23495000D03*
X187960000Y-23495000D03*
X190500000Y-23495000D03*
X193040000Y-23495000D03*
X195580000Y-23495000D03*
X198120000Y-23495000D03*
D22*
X130810000Y-70485000D03*
X130810000Y-73025000D03*
G36*
G01*
X131320000Y-76585000D02*
X130300000Y-76585000D01*
G75*
G02*
X129790000Y-76075000I0J510000D01*
G01*
X129790000Y-75055000D01*
G75*
G02*
X130300000Y-74545000I510000J0D01*
G01*
X131320000Y-74545000D01*
G75*
G02*
X131830000Y-75055000I0J-510000D01*
G01*
X131830000Y-76075000D01*
G75*
G02*
X131320000Y-76585000I-510000J0D01*
G01*
G37*
G36*
G01*
X160465000Y-23907500D02*
X160465000Y-23082500D01*
G75*
G02*
X160877500Y-22670000I412500J0D01*
G01*
X161702500Y-22670000D01*
G75*
G02*
X162115000Y-23082500I0J-412500D01*
G01*
X162115000Y-23907500D01*
G75*
G02*
X161702500Y-24320000I-412500J0D01*
G01*
X160877500Y-24320000D01*
G75*
G02*
X160465000Y-23907500I0J412500D01*
G01*
G37*
D23*
X163830000Y-23495000D03*
G36*
G01*
X168720000Y-23907500D02*
X168720000Y-23082500D01*
G75*
G02*
X169132500Y-22670000I412500J0D01*
G01*
X169957500Y-22670000D01*
G75*
G02*
X170370000Y-23082500I0J-412500D01*
G01*
X170370000Y-23907500D01*
G75*
G02*
X169957500Y-24320000I-412500J0D01*
G01*
X169132500Y-24320000D01*
G75*
G02*
X168720000Y-23907500I0J412500D01*
G01*
G37*
X172085000Y-23495000D03*
X177165000Y-23495000D03*
X174625000Y-23495000D03*
D24*
X161925000Y-36195000D03*
X156925000Y-36195000D03*
X181055000Y-36195000D03*
X186055000Y-36195000D03*
D25*
X232410000Y-86487000D03*
X231140000Y-86487000D03*
D26*
X233680000Y-86487000D03*
X231140000Y-82042000D03*
D25*
X233680000Y-82042000D03*
X232410000Y-82042000D03*
D27*
X171450000Y-114935000D03*
D12*
X179070000Y-114935000D03*
X208280000Y-114935000D03*
D27*
X215900000Y-114935000D03*
D12*
X187960000Y-70485000D03*
D27*
X195580000Y-70485000D03*
D12*
X203835000Y-59690000D03*
D27*
X211455000Y-59690000D03*
X211455000Y-62865000D03*
D12*
X203835000Y-62865000D03*
D27*
X187960000Y-73660000D03*
D12*
X195580000Y-73660000D03*
X203835000Y-65989200D03*
D27*
X211455000Y-66040000D03*
D12*
X147320000Y-114935000D03*
D27*
X139700000Y-114935000D03*
X139192000Y-41402000D03*
D12*
X139192000Y-33782000D03*
X229235000Y-92329000D03*
D27*
X229235000Y-99949000D03*
X151892000Y-33782000D03*
D12*
X151892000Y-41402000D03*
D27*
X167640000Y-114935000D03*
D12*
X160020000Y-114935000D03*
X170561000Y-92710000D03*
D27*
X178181000Y-92710000D03*
X167640000Y-118110000D03*
D12*
X160020000Y-118110000D03*
D27*
X178181000Y-95885000D03*
D12*
X170561000Y-95885000D03*
X167640000Y-121285000D03*
D27*
X160020000Y-121285000D03*
X170561000Y-99060000D03*
D12*
X178181000Y-99060000D03*
X160020000Y-124460000D03*
D27*
X167640000Y-124460000D03*
X178181000Y-102235000D03*
D12*
X170561000Y-102235000D03*
D27*
X160020000Y-127635000D03*
D12*
X167640000Y-127635000D03*
D27*
X170561000Y-105410000D03*
D12*
X178181000Y-105410000D03*
X211455000Y-37465000D03*
D27*
X203835000Y-37465000D03*
X142367000Y-41402000D03*
D12*
X142367000Y-33782000D03*
D27*
X211455000Y-41910000D03*
D12*
X203835000Y-41910000D03*
X151638000Y-92710000D03*
D27*
X159258000Y-92710000D03*
X211455000Y-45085000D03*
D12*
X203835000Y-45085000D03*
X151638000Y-95885000D03*
D27*
X159258000Y-95885000D03*
D12*
X147320000Y-118110000D03*
D27*
X139700000Y-118110000D03*
D12*
X203835000Y-48260000D03*
D27*
X211455000Y-48260000D03*
X151638000Y-99060000D03*
D12*
X159258000Y-99060000D03*
X203835000Y-51435000D03*
D27*
X211455000Y-51435000D03*
X159258000Y-102235000D03*
D12*
X151638000Y-102235000D03*
D27*
X211455000Y-54610000D03*
D12*
X203835000Y-54610000D03*
D27*
X159258000Y-105410000D03*
D12*
X151638000Y-105410000D03*
X233045000Y-37465000D03*
D27*
X225425000Y-37465000D03*
X145542000Y-41402000D03*
D12*
X145542000Y-33782000D03*
D27*
X148717000Y-41402000D03*
D12*
X148717000Y-33782000D03*
D27*
X233045000Y-41910000D03*
D12*
X225425000Y-41910000D03*
X170561000Y-61595000D03*
D27*
X178181000Y-61595000D03*
X159258000Y-61595000D03*
D12*
X151638000Y-61595000D03*
D27*
X233045000Y-45085000D03*
D12*
X225425000Y-45085000D03*
D27*
X178181000Y-64770000D03*
D12*
X170561000Y-64770000D03*
X151638000Y-64770000D03*
D27*
X159258000Y-64770000D03*
D12*
X233045000Y-48260000D03*
D27*
X225425000Y-48260000D03*
X170561000Y-67945000D03*
D12*
X178181000Y-67945000D03*
X159258000Y-67945000D03*
D27*
X151638000Y-67945000D03*
D12*
X225425000Y-51435000D03*
D27*
X233045000Y-51435000D03*
X178181000Y-71120000D03*
D12*
X170561000Y-71120000D03*
X151638000Y-71120000D03*
D27*
X159258000Y-71120000D03*
X225425000Y-54610000D03*
D12*
X233045000Y-54610000D03*
X170561000Y-74295000D03*
D27*
X178181000Y-74295000D03*
D12*
X159258000Y-74295000D03*
D27*
X151638000Y-74295000D03*
D28*
X146050000Y-123190000D03*
X143510000Y-123190000D03*
X140970000Y-123190000D03*
D29*
X234950000Y-94230000D03*
D30*
X234950000Y-96230000D03*
X234950000Y-98230000D03*
D31*
X234950000Y-92130000D03*
X234950000Y-100330000D03*
D23*
X130810000Y-118745000D03*
G36*
G01*
X131222500Y-122110000D02*
X130397500Y-122110000D01*
G75*
G02*
X129985000Y-121697500I0J412500D01*
G01*
X129985000Y-120872500D01*
G75*
G02*
X130397500Y-120460000I412500J0D01*
G01*
X131222500Y-120460000D01*
G75*
G02*
X131635000Y-120872500I0J-412500D01*
G01*
X131635000Y-121697500D01*
G75*
G02*
X131222500Y-122110000I-412500J0D01*
G01*
G37*
X130810000Y-62230000D03*
G36*
G01*
X131222500Y-65595000D02*
X130397500Y-65595000D01*
G75*
G02*
X129985000Y-65182500I0J412500D01*
G01*
X129985000Y-64357500D01*
G75*
G02*
X130397500Y-63945000I412500J0D01*
G01*
X131222500Y-63945000D01*
G75*
G02*
X131635000Y-64357500I0J-412500D01*
G01*
X131635000Y-65182500D01*
G75*
G02*
X131222500Y-65595000I-412500J0D01*
G01*
G37*
G36*
G01*
X216345000Y-23907500D02*
X216345000Y-23082500D01*
G75*
G02*
X216757500Y-22670000I412500J0D01*
G01*
X217582500Y-22670000D01*
G75*
G02*
X217995000Y-23082500I0J-412500D01*
G01*
X217995000Y-23907500D01*
G75*
G02*
X217582500Y-24320000I-412500J0D01*
G01*
X216757500Y-24320000D01*
G75*
G02*
X216345000Y-23907500I0J412500D01*
G01*
G37*
X219710000Y-23495000D03*
G36*
G01*
X131222500Y-58610000D02*
X130397500Y-58610000D01*
G75*
G02*
X129985000Y-58197500I0J412500D01*
G01*
X129985000Y-57372500D01*
G75*
G02*
X130397500Y-56960000I412500J0D01*
G01*
X131222500Y-56960000D01*
G75*
G02*
X131635000Y-57372500I0J-412500D01*
G01*
X131635000Y-58197500D01*
G75*
G02*
X131222500Y-58610000I-412500J0D01*
G01*
G37*
X130810000Y-55245000D03*
X226695000Y-23495000D03*
G36*
G01*
X223330000Y-23907500D02*
X223330000Y-23082500D01*
G75*
G02*
X223742500Y-22670000I412500J0D01*
G01*
X224567500Y-22670000D01*
G75*
G02*
X224980000Y-23082500I0J-412500D01*
G01*
X224980000Y-23907500D01*
G75*
G02*
X224567500Y-24320000I-412500J0D01*
G01*
X223742500Y-24320000D01*
G75*
G02*
X223330000Y-23907500I0J412500D01*
G01*
G37*
G36*
G01*
X131222500Y-51625000D02*
X130397500Y-51625000D01*
G75*
G02*
X129985000Y-51212500I0J412500D01*
G01*
X129985000Y-50387500D01*
G75*
G02*
X130397500Y-49975000I412500J0D01*
G01*
X131222500Y-49975000D01*
G75*
G02*
X131635000Y-50387500I0J-412500D01*
G01*
X131635000Y-51212500D01*
G75*
G02*
X131222500Y-51625000I-412500J0D01*
G01*
G37*
X130810000Y-48260000D03*
X130810000Y-41275000D03*
G36*
G01*
X131222500Y-44640000D02*
X130397500Y-44640000D01*
G75*
G02*
X129985000Y-44227500I0J412500D01*
G01*
X129985000Y-43402500D01*
G75*
G02*
X130397500Y-42990000I412500J0D01*
G01*
X131222500Y-42990000D01*
G75*
G02*
X131635000Y-43402500I0J-412500D01*
G01*
X131635000Y-44227500D01*
G75*
G02*
X131222500Y-44640000I-412500J0D01*
G01*
G37*
D32*
X199680000Y-127555000D03*
X199680000Y-122555000D03*
D33*
X192680000Y-130655000D03*
X192680000Y-119455000D03*
D32*
X185180000Y-127555000D03*
X185180000Y-125055000D03*
D34*
X185180000Y-122555000D03*
G36*
G01*
X149475000Y-24005000D02*
X149475000Y-22985000D01*
G75*
G02*
X149985000Y-22475000I510000J0D01*
G01*
X151005000Y-22475000D01*
G75*
G02*
X151515000Y-22985000I0J-510000D01*
G01*
X151515000Y-24005000D01*
G75*
G02*
X151005000Y-24515000I-510000J0D01*
G01*
X149985000Y-24515000D01*
G75*
G02*
X149475000Y-24005000I0J510000D01*
G01*
G37*
D22*
X153035000Y-23495000D03*
X155575000Y-23495000D03*
D27*
X172085000Y-121285000D03*
D12*
X172085000Y-128905000D03*
X175260000Y-128905000D03*
D27*
X175260000Y-121285000D03*
D12*
X178435000Y-121285000D03*
D27*
X178435000Y-128905000D03*
X206375000Y-121285000D03*
D12*
X206375000Y-128905000D03*
X209550000Y-121285000D03*
D27*
X209550000Y-128905000D03*
X212725000Y-128905000D03*
D12*
X212725000Y-121285000D03*
M02*
