G04 #@! TF.GenerationSoftware,KiCad,Pcbnew,(5.1.9-0-10_14)*
G04 #@! TF.CreationDate,2021-01-20T18:33:34+01:00*
G04 #@! TF.ProjectId,3DPrinter_Watercooling,33445072-696e-4746-9572-5f5761746572,rev?*
G04 #@! TF.SameCoordinates,Original*
G04 #@! TF.FileFunction,Soldermask,Top*
G04 #@! TF.FilePolarity,Negative*
%FSLAX46Y46*%
G04 Gerber Fmt 4.6, Leading zero omitted, Abs format (unit mm)*
G04 Created by KiCad (PCBNEW (5.1.9-0-10_14)) date 2021-01-20 18:33:34*
%MOMM*%
%LPD*%
G01*
G04 APERTURE LIST*
%ADD10C,1.700000*%
%ADD11R,1.600000X1.600000*%
%ADD12C,1.600000*%
%ADD13R,1.200000X1.200000*%
%ADD14C,1.200000*%
%ADD15R,3.200000X3.200000*%
%ADD16O,3.200000X3.200000*%
%ADD17C,0.700000*%
%ADD18C,4.400000*%
%ADD19R,1.550000X0.700000*%
%ADD20C,2.500000*%
%ADD21R,1.700000X1.700000*%
%ADD22O,1.700000X1.700000*%
%ADD23C,2.040000*%
%ADD24C,1.650000*%
%ADD25C,2.600000*%
%ADD26O,1.050000X1.500000*%
%ADD27R,1.050000X1.500000*%
%ADD28O,1.600000X1.600000*%
%ADD29C,1.440000*%
%ADD30R,1.800000X1.000000*%
%ADD31R,2.500000X1.500000*%
%ADD32O,2.500000X1.500000*%
%ADD33O,3.500000X2.200000*%
%ADD34R,5.000000X5.000000*%
%ADD35R,2.000000X0.900000*%
%ADD36R,0.900000X2.000000*%
%ADD37R,1.900000X0.600000*%
%ADD38C,2.000000*%
%ADD39R,3.200000X2.000000*%
%ADD40R,2.000000X2.000000*%
G04 APERTURE END LIST*
D10*
X223380000Y-80670000D03*
X223380000Y-83210000D03*
X223380000Y-85750000D03*
X223380000Y-88290000D03*
G36*
G01*
X138230000Y-68395000D02*
X138230000Y-67545000D01*
G75*
G02*
X138655000Y-67120000I425000J0D01*
G01*
X139505000Y-67120000D01*
G75*
G02*
X139930000Y-67545000I0J-425000D01*
G01*
X139930000Y-68395000D01*
G75*
G02*
X139505000Y-68820000I-425000J0D01*
G01*
X138655000Y-68820000D01*
G75*
G02*
X138230000Y-68395000I0J425000D01*
G01*
G37*
X139080000Y-70510000D03*
X139080000Y-73050000D03*
X139080000Y-75590000D03*
X139080000Y-78130000D03*
X139080000Y-80670000D03*
X139080000Y-83210000D03*
X139080000Y-85750000D03*
X139080000Y-88290000D03*
X139080000Y-90830000D03*
X139080000Y-93370000D03*
X139080000Y-95910000D03*
X139080000Y-98450000D03*
X139080000Y-100990000D03*
G36*
G01*
X167353000Y-48212500D02*
X166403000Y-48212500D01*
G75*
G02*
X166153000Y-47962500I0J250000D01*
G01*
X166153000Y-47287500D01*
G75*
G02*
X166403000Y-47037500I250000J0D01*
G01*
X167353000Y-47037500D01*
G75*
G02*
X167603000Y-47287500I0J-250000D01*
G01*
X167603000Y-47962500D01*
G75*
G02*
X167353000Y-48212500I-250000J0D01*
G01*
G37*
G36*
G01*
X167353000Y-46137500D02*
X166403000Y-46137500D01*
G75*
G02*
X166153000Y-45887500I0J250000D01*
G01*
X166153000Y-45212500D01*
G75*
G02*
X166403000Y-44962500I250000J0D01*
G01*
X167353000Y-44962500D01*
G75*
G02*
X167603000Y-45212500I0J-250000D01*
G01*
X167603000Y-45887500D01*
G75*
G02*
X167353000Y-46137500I-250000J0D01*
G01*
G37*
D11*
X169545000Y-36195000D03*
D12*
X172045000Y-36195000D03*
D13*
X230505000Y-59944000D03*
D14*
X230505000Y-58444000D03*
G36*
G01*
X215482000Y-59530000D02*
X215482000Y-58580000D01*
G75*
G02*
X215732000Y-58330000I250000J0D01*
G01*
X216407000Y-58330000D01*
G75*
G02*
X216657000Y-58580000I0J-250000D01*
G01*
X216657000Y-59530000D01*
G75*
G02*
X216407000Y-59780000I-250000J0D01*
G01*
X215732000Y-59780000D01*
G75*
G02*
X215482000Y-59530000I0J250000D01*
G01*
G37*
G36*
G01*
X213407000Y-59530000D02*
X213407000Y-58580000D01*
G75*
G02*
X213657000Y-58330000I250000J0D01*
G01*
X214332000Y-58330000D01*
G75*
G02*
X214582000Y-58580000I0J-250000D01*
G01*
X214582000Y-59530000D01*
G75*
G02*
X214332000Y-59780000I-250000J0D01*
G01*
X213657000Y-59780000D01*
G75*
G02*
X213407000Y-59530000I0J250000D01*
G01*
G37*
G36*
G01*
X202090000Y-22907500D02*
X203040000Y-22907500D01*
G75*
G02*
X203290000Y-23157500I0J-250000D01*
G01*
X203290000Y-23832500D01*
G75*
G02*
X203040000Y-24082500I-250000J0D01*
G01*
X202090000Y-24082500D01*
G75*
G02*
X201840000Y-23832500I0J250000D01*
G01*
X201840000Y-23157500D01*
G75*
G02*
X202090000Y-22907500I250000J0D01*
G01*
G37*
G36*
G01*
X202090000Y-24982500D02*
X203040000Y-24982500D01*
G75*
G02*
X203290000Y-25232500I0J-250000D01*
G01*
X203290000Y-25907500D01*
G75*
G02*
X203040000Y-26157500I-250000J0D01*
G01*
X202090000Y-26157500D01*
G75*
G02*
X201840000Y-25907500I0J250000D01*
G01*
X201840000Y-25232500D01*
G75*
G02*
X202090000Y-24982500I250000J0D01*
G01*
G37*
G36*
G01*
X220128000Y-118270000D02*
X220128000Y-119220000D01*
G75*
G02*
X219878000Y-119470000I-250000J0D01*
G01*
X219203000Y-119470000D01*
G75*
G02*
X218953000Y-119220000I0J250000D01*
G01*
X218953000Y-118270000D01*
G75*
G02*
X219203000Y-118020000I250000J0D01*
G01*
X219878000Y-118020000D01*
G75*
G02*
X220128000Y-118270000I0J-250000D01*
G01*
G37*
G36*
G01*
X222203000Y-118270000D02*
X222203000Y-119220000D01*
G75*
G02*
X221953000Y-119470000I-250000J0D01*
G01*
X221278000Y-119470000D01*
G75*
G02*
X221028000Y-119220000I0J250000D01*
G01*
X221028000Y-118270000D01*
G75*
G02*
X221278000Y-118020000I250000J0D01*
G01*
X221953000Y-118020000D01*
G75*
G02*
X222203000Y-118270000I0J-250000D01*
G01*
G37*
D12*
X197445000Y-36195000D03*
D11*
X194945000Y-36195000D03*
G36*
G01*
X190975000Y-48212500D02*
X190025000Y-48212500D01*
G75*
G02*
X189775000Y-47962500I0J250000D01*
G01*
X189775000Y-47287500D01*
G75*
G02*
X190025000Y-47037500I250000J0D01*
G01*
X190975000Y-47037500D01*
G75*
G02*
X191225000Y-47287500I0J-250000D01*
G01*
X191225000Y-47962500D01*
G75*
G02*
X190975000Y-48212500I-250000J0D01*
G01*
G37*
G36*
G01*
X190975000Y-46137500D02*
X190025000Y-46137500D01*
G75*
G02*
X189775000Y-45887500I0J250000D01*
G01*
X189775000Y-45212500D01*
G75*
G02*
X190025000Y-44962500I250000J0D01*
G01*
X190975000Y-44962500D01*
G75*
G02*
X191225000Y-45212500I0J-250000D01*
G01*
X191225000Y-45887500D01*
G75*
G02*
X190975000Y-46137500I-250000J0D01*
G01*
G37*
X196215000Y-43855000D03*
D12*
X196215000Y-46355000D03*
G36*
G01*
X215482000Y-62070000D02*
X215482000Y-61120000D01*
G75*
G02*
X215732000Y-60870000I250000J0D01*
G01*
X216407000Y-60870000D01*
G75*
G02*
X216657000Y-61120000I0J-250000D01*
G01*
X216657000Y-62070000D01*
G75*
G02*
X216407000Y-62320000I-250000J0D01*
G01*
X215732000Y-62320000D01*
G75*
G02*
X215482000Y-62070000I0J250000D01*
G01*
G37*
G36*
G01*
X213407000Y-62070000D02*
X213407000Y-61120000D01*
G75*
G02*
X213657000Y-60870000I250000J0D01*
G01*
X214332000Y-60870000D01*
G75*
G02*
X214582000Y-61120000I0J-250000D01*
G01*
X214582000Y-62070000D01*
G75*
G02*
X214332000Y-62320000I-250000J0D01*
G01*
X213657000Y-62320000D01*
G75*
G02*
X213407000Y-62070000I0J250000D01*
G01*
G37*
D11*
X143510000Y-128270000D03*
D12*
X143510000Y-130270000D03*
X150368000Y-51340000D03*
D11*
X150368000Y-53340000D03*
G36*
G01*
X156540000Y-115788000D02*
X157490000Y-115788000D01*
G75*
G02*
X157740000Y-116038000I0J-250000D01*
G01*
X157740000Y-116713000D01*
G75*
G02*
X157490000Y-116963000I-250000J0D01*
G01*
X156540000Y-116963000D01*
G75*
G02*
X156290000Y-116713000I0J250000D01*
G01*
X156290000Y-116038000D01*
G75*
G02*
X156540000Y-115788000I250000J0D01*
G01*
G37*
G36*
G01*
X156540000Y-113713000D02*
X157490000Y-113713000D01*
G75*
G02*
X157740000Y-113963000I0J-250000D01*
G01*
X157740000Y-114638000D01*
G75*
G02*
X157490000Y-114888000I-250000J0D01*
G01*
X156540000Y-114888000D01*
G75*
G02*
X156290000Y-114638000I0J250000D01*
G01*
X156290000Y-113963000D01*
G75*
G02*
X156540000Y-113713000I250000J0D01*
G01*
G37*
G36*
G01*
X168496000Y-92662500D02*
X167546000Y-92662500D01*
G75*
G02*
X167296000Y-92412500I0J250000D01*
G01*
X167296000Y-91737500D01*
G75*
G02*
X167546000Y-91487500I250000J0D01*
G01*
X168496000Y-91487500D01*
G75*
G02*
X168746000Y-91737500I0J-250000D01*
G01*
X168746000Y-92412500D01*
G75*
G02*
X168496000Y-92662500I-250000J0D01*
G01*
G37*
G36*
G01*
X168496000Y-94737500D02*
X167546000Y-94737500D01*
G75*
G02*
X167296000Y-94487500I0J250000D01*
G01*
X167296000Y-93812500D01*
G75*
G02*
X167546000Y-93562500I250000J0D01*
G01*
X168496000Y-93562500D01*
G75*
G02*
X168746000Y-93812500I0J-250000D01*
G01*
X168746000Y-94487500D01*
G75*
G02*
X168496000Y-94737500I-250000J0D01*
G01*
G37*
D12*
X216535000Y-34290000D03*
D11*
X214535000Y-34290000D03*
D12*
X150368000Y-44990000D03*
D11*
X150368000Y-46990000D03*
G36*
G01*
X214790000Y-40687500D02*
X215740000Y-40687500D01*
G75*
G02*
X215990000Y-40937500I0J-250000D01*
G01*
X215990000Y-41612500D01*
G75*
G02*
X215740000Y-41862500I-250000J0D01*
G01*
X214790000Y-41862500D01*
G75*
G02*
X214540000Y-41612500I0J250000D01*
G01*
X214540000Y-40937500D01*
G75*
G02*
X214790000Y-40687500I250000J0D01*
G01*
G37*
G36*
G01*
X214790000Y-42762500D02*
X215740000Y-42762500D01*
G75*
G02*
X215990000Y-43012500I0J-250000D01*
G01*
X215990000Y-43687500D01*
G75*
G02*
X215740000Y-43937500I-250000J0D01*
G01*
X214790000Y-43937500D01*
G75*
G02*
X214540000Y-43687500I0J250000D01*
G01*
X214540000Y-43012500D01*
G75*
G02*
X214790000Y-42762500I250000J0D01*
G01*
G37*
G36*
G01*
X161323000Y-93562500D02*
X162273000Y-93562500D01*
G75*
G02*
X162523000Y-93812500I0J-250000D01*
G01*
X162523000Y-94487500D01*
G75*
G02*
X162273000Y-94737500I-250000J0D01*
G01*
X161323000Y-94737500D01*
G75*
G02*
X161073000Y-94487500I0J250000D01*
G01*
X161073000Y-93812500D01*
G75*
G02*
X161323000Y-93562500I250000J0D01*
G01*
G37*
G36*
G01*
X161323000Y-91487500D02*
X162273000Y-91487500D01*
G75*
G02*
X162523000Y-91737500I0J-250000D01*
G01*
X162523000Y-92412500D01*
G75*
G02*
X162273000Y-92662500I-250000J0D01*
G01*
X161323000Y-92662500D01*
G75*
G02*
X161073000Y-92412500I0J250000D01*
G01*
X161073000Y-91737500D01*
G75*
G02*
X161323000Y-91487500I250000J0D01*
G01*
G37*
X220345000Y-34290000D03*
D12*
X222345000Y-34290000D03*
D11*
X141478000Y-53435000D03*
D12*
X141478000Y-51435000D03*
D11*
X141478000Y-46990000D03*
D12*
X141478000Y-44990000D03*
G36*
G01*
X222090000Y-41862500D02*
X221140000Y-41862500D01*
G75*
G02*
X220890000Y-41612500I0J250000D01*
G01*
X220890000Y-40937500D01*
G75*
G02*
X221140000Y-40687500I250000J0D01*
G01*
X222090000Y-40687500D01*
G75*
G02*
X222340000Y-40937500I0J-250000D01*
G01*
X222340000Y-41612500D01*
G75*
G02*
X222090000Y-41862500I-250000J0D01*
G01*
G37*
G36*
G01*
X222090000Y-43937500D02*
X221140000Y-43937500D01*
G75*
G02*
X220890000Y-43687500I0J250000D01*
G01*
X220890000Y-43012500D01*
G75*
G02*
X221140000Y-42762500I250000J0D01*
G01*
X222090000Y-42762500D01*
G75*
G02*
X222340000Y-43012500I0J-250000D01*
G01*
X222340000Y-43687500D01*
G75*
G02*
X222090000Y-43937500I-250000J0D01*
G01*
G37*
G36*
G01*
X168623000Y-63622500D02*
X167673000Y-63622500D01*
G75*
G02*
X167423000Y-63372500I0J250000D01*
G01*
X167423000Y-62697500D01*
G75*
G02*
X167673000Y-62447500I250000J0D01*
G01*
X168623000Y-62447500D01*
G75*
G02*
X168873000Y-62697500I0J-250000D01*
G01*
X168873000Y-63372500D01*
G75*
G02*
X168623000Y-63622500I-250000J0D01*
G01*
G37*
G36*
G01*
X168623000Y-61547500D02*
X167673000Y-61547500D01*
G75*
G02*
X167423000Y-61297500I0J250000D01*
G01*
X167423000Y-60622500D01*
G75*
G02*
X167673000Y-60372500I250000J0D01*
G01*
X168623000Y-60372500D01*
G75*
G02*
X168873000Y-60622500I0J-250000D01*
G01*
X168873000Y-61297500D01*
G75*
G02*
X168623000Y-61547500I-250000J0D01*
G01*
G37*
G36*
G01*
X161323000Y-62447500D02*
X162273000Y-62447500D01*
G75*
G02*
X162523000Y-62697500I0J-250000D01*
G01*
X162523000Y-63372500D01*
G75*
G02*
X162273000Y-63622500I-250000J0D01*
G01*
X161323000Y-63622500D01*
G75*
G02*
X161073000Y-63372500I0J250000D01*
G01*
X161073000Y-62697500D01*
G75*
G02*
X161323000Y-62447500I250000J0D01*
G01*
G37*
G36*
G01*
X161323000Y-60372500D02*
X162273000Y-60372500D01*
G75*
G02*
X162523000Y-60622500I0J-250000D01*
G01*
X162523000Y-61297500D01*
G75*
G02*
X162273000Y-61547500I-250000J0D01*
G01*
X161323000Y-61547500D01*
G75*
G02*
X161073000Y-61297500I0J250000D01*
G01*
X161073000Y-60622500D01*
G75*
G02*
X161323000Y-60372500I250000J0D01*
G01*
G37*
D15*
X173863000Y-52705000D03*
D16*
X158623000Y-52705000D03*
G36*
G01*
X186775000Y-114992999D02*
X186775000Y-115893001D01*
G75*
G02*
X186525001Y-116143000I-249999J0D01*
G01*
X185874999Y-116143000D01*
G75*
G02*
X185625000Y-115893001I0J249999D01*
G01*
X185625000Y-114992999D01*
G75*
G02*
X185874999Y-114743000I249999J0D01*
G01*
X186525001Y-114743000D01*
G75*
G02*
X186775000Y-114992999I0J-249999D01*
G01*
G37*
G36*
G01*
X184725000Y-114992999D02*
X184725000Y-115893001D01*
G75*
G02*
X184475001Y-116143000I-249999J0D01*
G01*
X183824999Y-116143000D01*
G75*
G02*
X183575000Y-115893001I0J249999D01*
G01*
X183575000Y-114992999D01*
G75*
G02*
X183824999Y-114743000I249999J0D01*
G01*
X184475001Y-114743000D01*
G75*
G02*
X184725000Y-114992999I0J-249999D01*
G01*
G37*
G36*
G01*
X199820000Y-114992999D02*
X199820000Y-115893001D01*
G75*
G02*
X199570001Y-116143000I-249999J0D01*
G01*
X198919999Y-116143000D01*
G75*
G02*
X198670000Y-115893001I0J249999D01*
G01*
X198670000Y-114992999D01*
G75*
G02*
X198919999Y-114743000I249999J0D01*
G01*
X199570001Y-114743000D01*
G75*
G02*
X199820000Y-114992999I0J-249999D01*
G01*
G37*
G36*
G01*
X201870000Y-114992999D02*
X201870000Y-115893001D01*
G75*
G02*
X201620001Y-116143000I-249999J0D01*
G01*
X200969999Y-116143000D01*
G75*
G02*
X200720000Y-115893001I0J249999D01*
G01*
X200720000Y-114992999D01*
G75*
G02*
X200969999Y-114743000I249999J0D01*
G01*
X201620001Y-114743000D01*
G75*
G02*
X201870000Y-114992999I0J-249999D01*
G01*
G37*
G36*
G01*
X194005000Y-114992999D02*
X194005000Y-115893001D01*
G75*
G02*
X193755001Y-116143000I-249999J0D01*
G01*
X193104999Y-116143000D01*
G75*
G02*
X192855000Y-115893001I0J249999D01*
G01*
X192855000Y-114992999D01*
G75*
G02*
X193104999Y-114743000I249999J0D01*
G01*
X193755001Y-114743000D01*
G75*
G02*
X194005000Y-114992999I0J-249999D01*
G01*
G37*
G36*
G01*
X191955000Y-114992999D02*
X191955000Y-115893001D01*
G75*
G02*
X191705001Y-116143000I-249999J0D01*
G01*
X191054999Y-116143000D01*
G75*
G02*
X190805000Y-115893001I0J249999D01*
G01*
X190805000Y-114992999D01*
G75*
G02*
X191054999Y-114743000I249999J0D01*
G01*
X191705001Y-114743000D01*
G75*
G02*
X191955000Y-114992999I0J-249999D01*
G01*
G37*
X181610000Y-52705000D03*
D15*
X196850000Y-52705000D03*
D17*
X133246726Y-23773274D03*
X132080000Y-23290000D03*
X130913274Y-23773274D03*
X130430000Y-24940000D03*
X130913274Y-26106726D03*
X132080000Y-26590000D03*
X133246726Y-26106726D03*
X133730000Y-24940000D03*
D18*
X132080000Y-24940000D03*
D17*
X233401726Y-23773274D03*
X232235000Y-23290000D03*
X231068274Y-23773274D03*
X230585000Y-24940000D03*
X231068274Y-26106726D03*
X232235000Y-26590000D03*
X233401726Y-26106726D03*
X233885000Y-24940000D03*
D18*
X232235000Y-24940000D03*
X232235000Y-128270000D03*
D17*
X233885000Y-128270000D03*
X233401726Y-129436726D03*
X232235000Y-129920000D03*
X231068274Y-129436726D03*
X230585000Y-128270000D03*
X231068274Y-127103274D03*
X232235000Y-126620000D03*
X233401726Y-127103274D03*
X133246726Y-127103274D03*
X132080000Y-126620000D03*
X130913274Y-127103274D03*
X130430000Y-128270000D03*
X130913274Y-129436726D03*
X132080000Y-129920000D03*
X133246726Y-129436726D03*
X133730000Y-128270000D03*
D18*
X132080000Y-128270000D03*
D19*
X157618000Y-47625000D03*
X157618000Y-46355000D03*
X157618000Y-45085000D03*
X157618000Y-43815000D03*
X163068000Y-43815000D03*
X163068000Y-45085000D03*
X163068000Y-46355000D03*
X163068000Y-47625000D03*
X186425000Y-47625000D03*
X186425000Y-46355000D03*
X186425000Y-45085000D03*
X186425000Y-43815000D03*
X180975000Y-43815000D03*
X180975000Y-45085000D03*
X180975000Y-46355000D03*
X180975000Y-47625000D03*
D20*
X144065000Y-23749000D03*
G36*
G01*
X137815000Y-24374000D02*
X137815000Y-23124000D01*
G75*
G02*
X138440000Y-22499000I625000J0D01*
G01*
X139690000Y-22499000D01*
G75*
G02*
X140315000Y-23124000I0J-625000D01*
G01*
X140315000Y-24374000D01*
G75*
G02*
X139690000Y-24999000I-625000J0D01*
G01*
X138440000Y-24999000D01*
G75*
G02*
X137815000Y-24374000I0J625000D01*
G01*
G37*
D21*
X235077000Y-76581000D03*
D22*
X235077000Y-74041000D03*
X235077000Y-71501000D03*
X235077000Y-68961000D03*
X235077000Y-66421000D03*
X235077000Y-63881000D03*
G36*
G01*
X131320000Y-114685000D02*
X130300000Y-114685000D01*
G75*
G02*
X129790000Y-114175000I0J510000D01*
G01*
X129790000Y-113155000D01*
G75*
G02*
X130300000Y-112645000I510000J0D01*
G01*
X131320000Y-112645000D01*
G75*
G02*
X131830000Y-113155000I0J-510000D01*
G01*
X131830000Y-114175000D01*
G75*
G02*
X131320000Y-114685000I-510000J0D01*
G01*
G37*
D23*
X130810000Y-111125000D03*
X130810000Y-108585000D03*
G36*
G01*
X131320000Y-105160000D02*
X130300000Y-105160000D01*
G75*
G02*
X129790000Y-104650000I0J510000D01*
G01*
X129790000Y-103630000D01*
G75*
G02*
X130300000Y-103120000I510000J0D01*
G01*
X131320000Y-103120000D01*
G75*
G02*
X131830000Y-103630000I0J-510000D01*
G01*
X131830000Y-104650000D01*
G75*
G02*
X131320000Y-105160000I-510000J0D01*
G01*
G37*
X130810000Y-101600000D03*
X130810000Y-99060000D03*
G36*
G01*
X131320000Y-95635000D02*
X130300000Y-95635000D01*
G75*
G02*
X129790000Y-95125000I0J510000D01*
G01*
X129790000Y-94105000D01*
G75*
G02*
X130300000Y-93595000I510000J0D01*
G01*
X131320000Y-93595000D01*
G75*
G02*
X131830000Y-94105000I0J-510000D01*
G01*
X131830000Y-95125000D01*
G75*
G02*
X131320000Y-95635000I-510000J0D01*
G01*
G37*
X130810000Y-92075000D03*
X130810000Y-89535000D03*
X130810000Y-80010000D03*
X130810000Y-82550000D03*
G36*
G01*
X131320000Y-86110000D02*
X130300000Y-86110000D01*
G75*
G02*
X129790000Y-85600000I0J510000D01*
G01*
X129790000Y-84580000D01*
G75*
G02*
X130300000Y-84070000I510000J0D01*
G01*
X131320000Y-84070000D01*
G75*
G02*
X131830000Y-84580000I0J-510000D01*
G01*
X131830000Y-85600000D01*
G75*
G02*
X131320000Y-86110000I-510000J0D01*
G01*
G37*
G36*
G01*
X182055000Y-23907500D02*
X182055000Y-23082500D01*
G75*
G02*
X182467500Y-22670000I412500J0D01*
G01*
X183292500Y-22670000D01*
G75*
G02*
X183705000Y-23082500I0J-412500D01*
G01*
X183705000Y-23907500D01*
G75*
G02*
X183292500Y-24320000I-412500J0D01*
G01*
X182467500Y-24320000D01*
G75*
G02*
X182055000Y-23907500I0J412500D01*
G01*
G37*
D24*
X185420000Y-23495000D03*
X187960000Y-23495000D03*
X190500000Y-23495000D03*
X193040000Y-23495000D03*
X195580000Y-23495000D03*
X198120000Y-23495000D03*
D23*
X130810000Y-70485000D03*
X130810000Y-73025000D03*
G36*
G01*
X131320000Y-76585000D02*
X130300000Y-76585000D01*
G75*
G02*
X129790000Y-76075000I0J510000D01*
G01*
X129790000Y-75055000D01*
G75*
G02*
X130300000Y-74545000I510000J0D01*
G01*
X131320000Y-74545000D01*
G75*
G02*
X131830000Y-75055000I0J-510000D01*
G01*
X131830000Y-76075000D01*
G75*
G02*
X131320000Y-76585000I-510000J0D01*
G01*
G37*
G36*
G01*
X160465000Y-23907500D02*
X160465000Y-23082500D01*
G75*
G02*
X160877500Y-22670000I412500J0D01*
G01*
X161702500Y-22670000D01*
G75*
G02*
X162115000Y-23082500I0J-412500D01*
G01*
X162115000Y-23907500D01*
G75*
G02*
X161702500Y-24320000I-412500J0D01*
G01*
X160877500Y-24320000D01*
G75*
G02*
X160465000Y-23907500I0J412500D01*
G01*
G37*
D24*
X163830000Y-23495000D03*
G36*
G01*
X168720000Y-23907500D02*
X168720000Y-23082500D01*
G75*
G02*
X169132500Y-22670000I412500J0D01*
G01*
X169957500Y-22670000D01*
G75*
G02*
X170370000Y-23082500I0J-412500D01*
G01*
X170370000Y-23907500D01*
G75*
G02*
X169957500Y-24320000I-412500J0D01*
G01*
X169132500Y-24320000D01*
G75*
G02*
X168720000Y-23907500I0J412500D01*
G01*
G37*
X172085000Y-23495000D03*
X177165000Y-23495000D03*
X174625000Y-23495000D03*
D25*
X161925000Y-36195000D03*
X156925000Y-36195000D03*
X181055000Y-36195000D03*
X186055000Y-36195000D03*
D26*
X232410000Y-86487000D03*
X231140000Y-86487000D03*
D27*
X233680000Y-86487000D03*
X231140000Y-82042000D03*
D26*
X233680000Y-82042000D03*
X232410000Y-82042000D03*
D28*
X171450000Y-114935000D03*
D12*
X179070000Y-114935000D03*
X208280000Y-114935000D03*
D28*
X215900000Y-114935000D03*
D12*
X187960000Y-70485000D03*
D28*
X195580000Y-70485000D03*
D12*
X203835000Y-59690000D03*
D28*
X211455000Y-59690000D03*
X211455000Y-62865000D03*
D12*
X203835000Y-62865000D03*
D28*
X187960000Y-73660000D03*
D12*
X195580000Y-73660000D03*
X203835000Y-65989200D03*
D28*
X211455000Y-66040000D03*
D12*
X147320000Y-114935000D03*
D28*
X139700000Y-114935000D03*
X139192000Y-41402000D03*
D12*
X139192000Y-33782000D03*
X229235000Y-92329000D03*
D28*
X229235000Y-99949000D03*
X151892000Y-33782000D03*
D12*
X151892000Y-41402000D03*
D28*
X167640000Y-114935000D03*
D12*
X160020000Y-114935000D03*
X170561000Y-92710000D03*
D28*
X178181000Y-92710000D03*
X167640000Y-118110000D03*
D12*
X160020000Y-118110000D03*
D28*
X178181000Y-95885000D03*
D12*
X170561000Y-95885000D03*
X167640000Y-121285000D03*
D28*
X160020000Y-121285000D03*
X170561000Y-99060000D03*
D12*
X178181000Y-99060000D03*
X160020000Y-124460000D03*
D28*
X167640000Y-124460000D03*
X178181000Y-102235000D03*
D12*
X170561000Y-102235000D03*
D28*
X160020000Y-127635000D03*
D12*
X167640000Y-127635000D03*
D28*
X170561000Y-105410000D03*
D12*
X178181000Y-105410000D03*
X211455000Y-37465000D03*
D28*
X203835000Y-37465000D03*
X142367000Y-41402000D03*
D12*
X142367000Y-33782000D03*
D28*
X211455000Y-41910000D03*
D12*
X203835000Y-41910000D03*
X151638000Y-92710000D03*
D28*
X159258000Y-92710000D03*
X211455000Y-45085000D03*
D12*
X203835000Y-45085000D03*
X151638000Y-95885000D03*
D28*
X159258000Y-95885000D03*
D12*
X147320000Y-118110000D03*
D28*
X139700000Y-118110000D03*
D12*
X203835000Y-48260000D03*
D28*
X211455000Y-48260000D03*
X151638000Y-99060000D03*
D12*
X159258000Y-99060000D03*
X203835000Y-51435000D03*
D28*
X211455000Y-51435000D03*
X159258000Y-102235000D03*
D12*
X151638000Y-102235000D03*
D28*
X211455000Y-54610000D03*
D12*
X203835000Y-54610000D03*
D28*
X159258000Y-105410000D03*
D12*
X151638000Y-105410000D03*
X233045000Y-37465000D03*
D28*
X225425000Y-37465000D03*
X145542000Y-41402000D03*
D12*
X145542000Y-33782000D03*
D28*
X148717000Y-41402000D03*
D12*
X148717000Y-33782000D03*
D28*
X233045000Y-41910000D03*
D12*
X225425000Y-41910000D03*
X170561000Y-61595000D03*
D28*
X178181000Y-61595000D03*
X159258000Y-61595000D03*
D12*
X151638000Y-61595000D03*
D28*
X233045000Y-45085000D03*
D12*
X225425000Y-45085000D03*
D28*
X178181000Y-64770000D03*
D12*
X170561000Y-64770000D03*
X151638000Y-64770000D03*
D28*
X159258000Y-64770000D03*
D12*
X233045000Y-48260000D03*
D28*
X225425000Y-48260000D03*
X170561000Y-67945000D03*
D12*
X178181000Y-67945000D03*
X159258000Y-67945000D03*
D28*
X151638000Y-67945000D03*
D12*
X225425000Y-51435000D03*
D28*
X233045000Y-51435000D03*
X178181000Y-71120000D03*
D12*
X170561000Y-71120000D03*
X151638000Y-71120000D03*
D28*
X159258000Y-71120000D03*
X225425000Y-54610000D03*
D12*
X233045000Y-54610000D03*
X170561000Y-74295000D03*
D28*
X178181000Y-74295000D03*
D12*
X159258000Y-74295000D03*
D28*
X151638000Y-74295000D03*
D29*
X146050000Y-123190000D03*
X143510000Y-123190000D03*
X140970000Y-123190000D03*
D30*
X212344000Y-21650000D03*
X206344000Y-21650000D03*
X206344000Y-25400000D03*
X212344000Y-25400000D03*
X217520000Y-125155000D03*
X223520000Y-125155000D03*
X223520000Y-128905000D03*
X217520000Y-128905000D03*
D31*
X234950000Y-94230000D03*
D32*
X234950000Y-96230000D03*
X234950000Y-98230000D03*
D33*
X234950000Y-92130000D03*
X234950000Y-100330000D03*
D24*
X130810000Y-118745000D03*
G36*
G01*
X131222500Y-122110000D02*
X130397500Y-122110000D01*
G75*
G02*
X129985000Y-121697500I0J412500D01*
G01*
X129985000Y-120872500D01*
G75*
G02*
X130397500Y-120460000I412500J0D01*
G01*
X131222500Y-120460000D01*
G75*
G02*
X131635000Y-120872500I0J-412500D01*
G01*
X131635000Y-121697500D01*
G75*
G02*
X131222500Y-122110000I-412500J0D01*
G01*
G37*
X130810000Y-62230000D03*
G36*
G01*
X131222500Y-65595000D02*
X130397500Y-65595000D01*
G75*
G02*
X129985000Y-65182500I0J412500D01*
G01*
X129985000Y-64357500D01*
G75*
G02*
X130397500Y-63945000I412500J0D01*
G01*
X131222500Y-63945000D01*
G75*
G02*
X131635000Y-64357500I0J-412500D01*
G01*
X131635000Y-65182500D01*
G75*
G02*
X131222500Y-65595000I-412500J0D01*
G01*
G37*
G36*
G01*
X216345000Y-23907500D02*
X216345000Y-23082500D01*
G75*
G02*
X216757500Y-22670000I412500J0D01*
G01*
X217582500Y-22670000D01*
G75*
G02*
X217995000Y-23082500I0J-412500D01*
G01*
X217995000Y-23907500D01*
G75*
G02*
X217582500Y-24320000I-412500J0D01*
G01*
X216757500Y-24320000D01*
G75*
G02*
X216345000Y-23907500I0J412500D01*
G01*
G37*
X219710000Y-23495000D03*
G36*
G01*
X131222500Y-58610000D02*
X130397500Y-58610000D01*
G75*
G02*
X129985000Y-58197500I0J412500D01*
G01*
X129985000Y-57372500D01*
G75*
G02*
X130397500Y-56960000I412500J0D01*
G01*
X131222500Y-56960000D01*
G75*
G02*
X131635000Y-57372500I0J-412500D01*
G01*
X131635000Y-58197500D01*
G75*
G02*
X131222500Y-58610000I-412500J0D01*
G01*
G37*
X130810000Y-55245000D03*
X226695000Y-23495000D03*
G36*
G01*
X223330000Y-23907500D02*
X223330000Y-23082500D01*
G75*
G02*
X223742500Y-22670000I412500J0D01*
G01*
X224567500Y-22670000D01*
G75*
G02*
X224980000Y-23082500I0J-412500D01*
G01*
X224980000Y-23907500D01*
G75*
G02*
X224567500Y-24320000I-412500J0D01*
G01*
X223742500Y-24320000D01*
G75*
G02*
X223330000Y-23907500I0J412500D01*
G01*
G37*
G36*
G01*
X131222500Y-51625000D02*
X130397500Y-51625000D01*
G75*
G02*
X129985000Y-51212500I0J412500D01*
G01*
X129985000Y-50387500D01*
G75*
G02*
X130397500Y-49975000I412500J0D01*
G01*
X131222500Y-49975000D01*
G75*
G02*
X131635000Y-50387500I0J-412500D01*
G01*
X131635000Y-51212500D01*
G75*
G02*
X131222500Y-51625000I-412500J0D01*
G01*
G37*
X130810000Y-48260000D03*
X130810000Y-41275000D03*
G36*
G01*
X131222500Y-44640000D02*
X130397500Y-44640000D01*
G75*
G02*
X129985000Y-44227500I0J412500D01*
G01*
X129985000Y-43402500D01*
G75*
G02*
X130397500Y-42990000I412500J0D01*
G01*
X131222500Y-42990000D01*
G75*
G02*
X131635000Y-43402500I0J-412500D01*
G01*
X131635000Y-44227500D01*
G75*
G02*
X131222500Y-44640000I-412500J0D01*
G01*
G37*
D34*
X199390000Y-91440000D03*
D35*
X206890000Y-98940000D03*
X206890000Y-97670000D03*
X206890000Y-96400000D03*
X206890000Y-95130000D03*
X206890000Y-93860000D03*
X206890000Y-92590000D03*
X206890000Y-91320000D03*
X206890000Y-90050000D03*
X206890000Y-88780000D03*
X206890000Y-87510000D03*
X206890000Y-86240000D03*
X206890000Y-84970000D03*
X206890000Y-83700000D03*
X206890000Y-82430000D03*
D36*
X204105000Y-81430000D03*
X202835000Y-81430000D03*
X201565000Y-81430000D03*
X200295000Y-81430000D03*
X199025000Y-81430000D03*
X197755000Y-81430000D03*
X196485000Y-81430000D03*
X195215000Y-81430000D03*
X193945000Y-81430000D03*
X192675000Y-81430000D03*
D35*
X189890000Y-82430000D03*
X189890000Y-83700000D03*
X189890000Y-84970000D03*
X189890000Y-86240000D03*
X189890000Y-87510000D03*
X189890000Y-88780000D03*
X189890000Y-90050000D03*
X189890000Y-91320000D03*
X189890000Y-92590000D03*
X189890000Y-93860000D03*
X189890000Y-95130000D03*
X189890000Y-96400000D03*
X189890000Y-97670000D03*
X189890000Y-98940000D03*
D37*
X177715000Y-79375000D03*
X177715000Y-80645000D03*
X177715000Y-81915000D03*
X177715000Y-83185000D03*
X177715000Y-84455000D03*
X177715000Y-85725000D03*
X177715000Y-86995000D03*
X177715000Y-88265000D03*
X172805000Y-88265000D03*
X172805000Y-86995000D03*
X172805000Y-85725000D03*
X172805000Y-84455000D03*
X172805000Y-83185000D03*
X172805000Y-81915000D03*
X172805000Y-80645000D03*
X172805000Y-79375000D03*
G36*
G01*
X150220000Y-119530000D02*
X150220000Y-119230000D01*
G75*
G02*
X150370000Y-119080000I150000J0D01*
G01*
X152020000Y-119080000D01*
G75*
G02*
X152170000Y-119230000I0J-150000D01*
G01*
X152170000Y-119530000D01*
G75*
G02*
X152020000Y-119680000I-150000J0D01*
G01*
X150370000Y-119680000D01*
G75*
G02*
X150220000Y-119530000I0J150000D01*
G01*
G37*
G36*
G01*
X150220000Y-120800000D02*
X150220000Y-120500000D01*
G75*
G02*
X150370000Y-120350000I150000J0D01*
G01*
X152020000Y-120350000D01*
G75*
G02*
X152170000Y-120500000I0J-150000D01*
G01*
X152170000Y-120800000D01*
G75*
G02*
X152020000Y-120950000I-150000J0D01*
G01*
X150370000Y-120950000D01*
G75*
G02*
X150220000Y-120800000I0J150000D01*
G01*
G37*
G36*
G01*
X150220000Y-122070000D02*
X150220000Y-121770000D01*
G75*
G02*
X150370000Y-121620000I150000J0D01*
G01*
X152020000Y-121620000D01*
G75*
G02*
X152170000Y-121770000I0J-150000D01*
G01*
X152170000Y-122070000D01*
G75*
G02*
X152020000Y-122220000I-150000J0D01*
G01*
X150370000Y-122220000D01*
G75*
G02*
X150220000Y-122070000I0J150000D01*
G01*
G37*
G36*
G01*
X150220000Y-123340000D02*
X150220000Y-123040000D01*
G75*
G02*
X150370000Y-122890000I150000J0D01*
G01*
X152020000Y-122890000D01*
G75*
G02*
X152170000Y-123040000I0J-150000D01*
G01*
X152170000Y-123340000D01*
G75*
G02*
X152020000Y-123490000I-150000J0D01*
G01*
X150370000Y-123490000D01*
G75*
G02*
X150220000Y-123340000I0J150000D01*
G01*
G37*
G36*
G01*
X150220000Y-124610000D02*
X150220000Y-124310000D01*
G75*
G02*
X150370000Y-124160000I150000J0D01*
G01*
X152020000Y-124160000D01*
G75*
G02*
X152170000Y-124310000I0J-150000D01*
G01*
X152170000Y-124610000D01*
G75*
G02*
X152020000Y-124760000I-150000J0D01*
G01*
X150370000Y-124760000D01*
G75*
G02*
X150220000Y-124610000I0J150000D01*
G01*
G37*
G36*
G01*
X150220000Y-125880000D02*
X150220000Y-125580000D01*
G75*
G02*
X150370000Y-125430000I150000J0D01*
G01*
X152020000Y-125430000D01*
G75*
G02*
X152170000Y-125580000I0J-150000D01*
G01*
X152170000Y-125880000D01*
G75*
G02*
X152020000Y-126030000I-150000J0D01*
G01*
X150370000Y-126030000D01*
G75*
G02*
X150220000Y-125880000I0J150000D01*
G01*
G37*
G36*
G01*
X150220000Y-127150000D02*
X150220000Y-126850000D01*
G75*
G02*
X150370000Y-126700000I150000J0D01*
G01*
X152020000Y-126700000D01*
G75*
G02*
X152170000Y-126850000I0J-150000D01*
G01*
X152170000Y-127150000D01*
G75*
G02*
X152020000Y-127300000I-150000J0D01*
G01*
X150370000Y-127300000D01*
G75*
G02*
X150220000Y-127150000I0J150000D01*
G01*
G37*
G36*
G01*
X155170000Y-127150000D02*
X155170000Y-126850000D01*
G75*
G02*
X155320000Y-126700000I150000J0D01*
G01*
X156970000Y-126700000D01*
G75*
G02*
X157120000Y-126850000I0J-150000D01*
G01*
X157120000Y-127150000D01*
G75*
G02*
X156970000Y-127300000I-150000J0D01*
G01*
X155320000Y-127300000D01*
G75*
G02*
X155170000Y-127150000I0J150000D01*
G01*
G37*
G36*
G01*
X155170000Y-125880000D02*
X155170000Y-125580000D01*
G75*
G02*
X155320000Y-125430000I150000J0D01*
G01*
X156970000Y-125430000D01*
G75*
G02*
X157120000Y-125580000I0J-150000D01*
G01*
X157120000Y-125880000D01*
G75*
G02*
X156970000Y-126030000I-150000J0D01*
G01*
X155320000Y-126030000D01*
G75*
G02*
X155170000Y-125880000I0J150000D01*
G01*
G37*
G36*
G01*
X155170000Y-124610000D02*
X155170000Y-124310000D01*
G75*
G02*
X155320000Y-124160000I150000J0D01*
G01*
X156970000Y-124160000D01*
G75*
G02*
X157120000Y-124310000I0J-150000D01*
G01*
X157120000Y-124610000D01*
G75*
G02*
X156970000Y-124760000I-150000J0D01*
G01*
X155320000Y-124760000D01*
G75*
G02*
X155170000Y-124610000I0J150000D01*
G01*
G37*
G36*
G01*
X155170000Y-123340000D02*
X155170000Y-123040000D01*
G75*
G02*
X155320000Y-122890000I150000J0D01*
G01*
X156970000Y-122890000D01*
G75*
G02*
X157120000Y-123040000I0J-150000D01*
G01*
X157120000Y-123340000D01*
G75*
G02*
X156970000Y-123490000I-150000J0D01*
G01*
X155320000Y-123490000D01*
G75*
G02*
X155170000Y-123340000I0J150000D01*
G01*
G37*
G36*
G01*
X155170000Y-122070000D02*
X155170000Y-121770000D01*
G75*
G02*
X155320000Y-121620000I150000J0D01*
G01*
X156970000Y-121620000D01*
G75*
G02*
X157120000Y-121770000I0J-150000D01*
G01*
X157120000Y-122070000D01*
G75*
G02*
X156970000Y-122220000I-150000J0D01*
G01*
X155320000Y-122220000D01*
G75*
G02*
X155170000Y-122070000I0J150000D01*
G01*
G37*
G36*
G01*
X155170000Y-120800000D02*
X155170000Y-120500000D01*
G75*
G02*
X155320000Y-120350000I150000J0D01*
G01*
X156970000Y-120350000D01*
G75*
G02*
X157120000Y-120500000I0J-150000D01*
G01*
X157120000Y-120800000D01*
G75*
G02*
X156970000Y-120950000I-150000J0D01*
G01*
X155320000Y-120950000D01*
G75*
G02*
X155170000Y-120800000I0J150000D01*
G01*
G37*
G36*
G01*
X155170000Y-119530000D02*
X155170000Y-119230000D01*
G75*
G02*
X155320000Y-119080000I150000J0D01*
G01*
X156970000Y-119080000D01*
G75*
G02*
X157120000Y-119230000I0J-150000D01*
G01*
X157120000Y-119530000D01*
G75*
G02*
X156970000Y-119680000I-150000J0D01*
G01*
X155320000Y-119680000D01*
G75*
G02*
X155170000Y-119530000I0J150000D01*
G01*
G37*
G36*
G01*
X161396000Y-96670000D02*
X161396000Y-96370000D01*
G75*
G02*
X161546000Y-96220000I150000J0D01*
G01*
X163196000Y-96220000D01*
G75*
G02*
X163346000Y-96370000I0J-150000D01*
G01*
X163346000Y-96670000D01*
G75*
G02*
X163196000Y-96820000I-150000J0D01*
G01*
X161546000Y-96820000D01*
G75*
G02*
X161396000Y-96670000I0J150000D01*
G01*
G37*
G36*
G01*
X161396000Y-97940000D02*
X161396000Y-97640000D01*
G75*
G02*
X161546000Y-97490000I150000J0D01*
G01*
X163196000Y-97490000D01*
G75*
G02*
X163346000Y-97640000I0J-150000D01*
G01*
X163346000Y-97940000D01*
G75*
G02*
X163196000Y-98090000I-150000J0D01*
G01*
X161546000Y-98090000D01*
G75*
G02*
X161396000Y-97940000I0J150000D01*
G01*
G37*
G36*
G01*
X161396000Y-99210000D02*
X161396000Y-98910000D01*
G75*
G02*
X161546000Y-98760000I150000J0D01*
G01*
X163196000Y-98760000D01*
G75*
G02*
X163346000Y-98910000I0J-150000D01*
G01*
X163346000Y-99210000D01*
G75*
G02*
X163196000Y-99360000I-150000J0D01*
G01*
X161546000Y-99360000D01*
G75*
G02*
X161396000Y-99210000I0J150000D01*
G01*
G37*
G36*
G01*
X161396000Y-100480000D02*
X161396000Y-100180000D01*
G75*
G02*
X161546000Y-100030000I150000J0D01*
G01*
X163196000Y-100030000D01*
G75*
G02*
X163346000Y-100180000I0J-150000D01*
G01*
X163346000Y-100480000D01*
G75*
G02*
X163196000Y-100630000I-150000J0D01*
G01*
X161546000Y-100630000D01*
G75*
G02*
X161396000Y-100480000I0J150000D01*
G01*
G37*
G36*
G01*
X161396000Y-101750000D02*
X161396000Y-101450000D01*
G75*
G02*
X161546000Y-101300000I150000J0D01*
G01*
X163196000Y-101300000D01*
G75*
G02*
X163346000Y-101450000I0J-150000D01*
G01*
X163346000Y-101750000D01*
G75*
G02*
X163196000Y-101900000I-150000J0D01*
G01*
X161546000Y-101900000D01*
G75*
G02*
X161396000Y-101750000I0J150000D01*
G01*
G37*
G36*
G01*
X161396000Y-103020000D02*
X161396000Y-102720000D01*
G75*
G02*
X161546000Y-102570000I150000J0D01*
G01*
X163196000Y-102570000D01*
G75*
G02*
X163346000Y-102720000I0J-150000D01*
G01*
X163346000Y-103020000D01*
G75*
G02*
X163196000Y-103170000I-150000J0D01*
G01*
X161546000Y-103170000D01*
G75*
G02*
X161396000Y-103020000I0J150000D01*
G01*
G37*
G36*
G01*
X161396000Y-104290000D02*
X161396000Y-103990000D01*
G75*
G02*
X161546000Y-103840000I150000J0D01*
G01*
X163196000Y-103840000D01*
G75*
G02*
X163346000Y-103990000I0J-150000D01*
G01*
X163346000Y-104290000D01*
G75*
G02*
X163196000Y-104440000I-150000J0D01*
G01*
X161546000Y-104440000D01*
G75*
G02*
X161396000Y-104290000I0J150000D01*
G01*
G37*
G36*
G01*
X166346000Y-104290000D02*
X166346000Y-103990000D01*
G75*
G02*
X166496000Y-103840000I150000J0D01*
G01*
X168146000Y-103840000D01*
G75*
G02*
X168296000Y-103990000I0J-150000D01*
G01*
X168296000Y-104290000D01*
G75*
G02*
X168146000Y-104440000I-150000J0D01*
G01*
X166496000Y-104440000D01*
G75*
G02*
X166346000Y-104290000I0J150000D01*
G01*
G37*
G36*
G01*
X166346000Y-103020000D02*
X166346000Y-102720000D01*
G75*
G02*
X166496000Y-102570000I150000J0D01*
G01*
X168146000Y-102570000D01*
G75*
G02*
X168296000Y-102720000I0J-150000D01*
G01*
X168296000Y-103020000D01*
G75*
G02*
X168146000Y-103170000I-150000J0D01*
G01*
X166496000Y-103170000D01*
G75*
G02*
X166346000Y-103020000I0J150000D01*
G01*
G37*
G36*
G01*
X166346000Y-101750000D02*
X166346000Y-101450000D01*
G75*
G02*
X166496000Y-101300000I150000J0D01*
G01*
X168146000Y-101300000D01*
G75*
G02*
X168296000Y-101450000I0J-150000D01*
G01*
X168296000Y-101750000D01*
G75*
G02*
X168146000Y-101900000I-150000J0D01*
G01*
X166496000Y-101900000D01*
G75*
G02*
X166346000Y-101750000I0J150000D01*
G01*
G37*
G36*
G01*
X166346000Y-100480000D02*
X166346000Y-100180000D01*
G75*
G02*
X166496000Y-100030000I150000J0D01*
G01*
X168146000Y-100030000D01*
G75*
G02*
X168296000Y-100180000I0J-150000D01*
G01*
X168296000Y-100480000D01*
G75*
G02*
X168146000Y-100630000I-150000J0D01*
G01*
X166496000Y-100630000D01*
G75*
G02*
X166346000Y-100480000I0J150000D01*
G01*
G37*
G36*
G01*
X166346000Y-99210000D02*
X166346000Y-98910000D01*
G75*
G02*
X166496000Y-98760000I150000J0D01*
G01*
X168146000Y-98760000D01*
G75*
G02*
X168296000Y-98910000I0J-150000D01*
G01*
X168296000Y-99210000D01*
G75*
G02*
X168146000Y-99360000I-150000J0D01*
G01*
X166496000Y-99360000D01*
G75*
G02*
X166346000Y-99210000I0J150000D01*
G01*
G37*
G36*
G01*
X166346000Y-97940000D02*
X166346000Y-97640000D01*
G75*
G02*
X166496000Y-97490000I150000J0D01*
G01*
X168146000Y-97490000D01*
G75*
G02*
X168296000Y-97640000I0J-150000D01*
G01*
X168296000Y-97940000D01*
G75*
G02*
X168146000Y-98090000I-150000J0D01*
G01*
X166496000Y-98090000D01*
G75*
G02*
X166346000Y-97940000I0J150000D01*
G01*
G37*
G36*
G01*
X166346000Y-96670000D02*
X166346000Y-96370000D01*
G75*
G02*
X166496000Y-96220000I150000J0D01*
G01*
X168146000Y-96220000D01*
G75*
G02*
X168296000Y-96370000I0J-150000D01*
G01*
X168296000Y-96670000D01*
G75*
G02*
X168146000Y-96820000I-150000J0D01*
G01*
X166496000Y-96820000D01*
G75*
G02*
X166346000Y-96670000I0J150000D01*
G01*
G37*
G36*
G01*
X214990000Y-46505000D02*
X214990000Y-46205000D01*
G75*
G02*
X215140000Y-46055000I150000J0D01*
G01*
X216790000Y-46055000D01*
G75*
G02*
X216940000Y-46205000I0J-150000D01*
G01*
X216940000Y-46505000D01*
G75*
G02*
X216790000Y-46655000I-150000J0D01*
G01*
X215140000Y-46655000D01*
G75*
G02*
X214990000Y-46505000I0J150000D01*
G01*
G37*
G36*
G01*
X214990000Y-47775000D02*
X214990000Y-47475000D01*
G75*
G02*
X215140000Y-47325000I150000J0D01*
G01*
X216790000Y-47325000D01*
G75*
G02*
X216940000Y-47475000I0J-150000D01*
G01*
X216940000Y-47775000D01*
G75*
G02*
X216790000Y-47925000I-150000J0D01*
G01*
X215140000Y-47925000D01*
G75*
G02*
X214990000Y-47775000I0J150000D01*
G01*
G37*
G36*
G01*
X214990000Y-49045000D02*
X214990000Y-48745000D01*
G75*
G02*
X215140000Y-48595000I150000J0D01*
G01*
X216790000Y-48595000D01*
G75*
G02*
X216940000Y-48745000I0J-150000D01*
G01*
X216940000Y-49045000D01*
G75*
G02*
X216790000Y-49195000I-150000J0D01*
G01*
X215140000Y-49195000D01*
G75*
G02*
X214990000Y-49045000I0J150000D01*
G01*
G37*
G36*
G01*
X214990000Y-50315000D02*
X214990000Y-50015000D01*
G75*
G02*
X215140000Y-49865000I150000J0D01*
G01*
X216790000Y-49865000D01*
G75*
G02*
X216940000Y-50015000I0J-150000D01*
G01*
X216940000Y-50315000D01*
G75*
G02*
X216790000Y-50465000I-150000J0D01*
G01*
X215140000Y-50465000D01*
G75*
G02*
X214990000Y-50315000I0J150000D01*
G01*
G37*
G36*
G01*
X214990000Y-51585000D02*
X214990000Y-51285000D01*
G75*
G02*
X215140000Y-51135000I150000J0D01*
G01*
X216790000Y-51135000D01*
G75*
G02*
X216940000Y-51285000I0J-150000D01*
G01*
X216940000Y-51585000D01*
G75*
G02*
X216790000Y-51735000I-150000J0D01*
G01*
X215140000Y-51735000D01*
G75*
G02*
X214990000Y-51585000I0J150000D01*
G01*
G37*
G36*
G01*
X214990000Y-52855000D02*
X214990000Y-52555000D01*
G75*
G02*
X215140000Y-52405000I150000J0D01*
G01*
X216790000Y-52405000D01*
G75*
G02*
X216940000Y-52555000I0J-150000D01*
G01*
X216940000Y-52855000D01*
G75*
G02*
X216790000Y-53005000I-150000J0D01*
G01*
X215140000Y-53005000D01*
G75*
G02*
X214990000Y-52855000I0J150000D01*
G01*
G37*
G36*
G01*
X214990000Y-54125000D02*
X214990000Y-53825000D01*
G75*
G02*
X215140000Y-53675000I150000J0D01*
G01*
X216790000Y-53675000D01*
G75*
G02*
X216940000Y-53825000I0J-150000D01*
G01*
X216940000Y-54125000D01*
G75*
G02*
X216790000Y-54275000I-150000J0D01*
G01*
X215140000Y-54275000D01*
G75*
G02*
X214990000Y-54125000I0J150000D01*
G01*
G37*
G36*
G01*
X219940000Y-54125000D02*
X219940000Y-53825000D01*
G75*
G02*
X220090000Y-53675000I150000J0D01*
G01*
X221740000Y-53675000D01*
G75*
G02*
X221890000Y-53825000I0J-150000D01*
G01*
X221890000Y-54125000D01*
G75*
G02*
X221740000Y-54275000I-150000J0D01*
G01*
X220090000Y-54275000D01*
G75*
G02*
X219940000Y-54125000I0J150000D01*
G01*
G37*
G36*
G01*
X219940000Y-52855000D02*
X219940000Y-52555000D01*
G75*
G02*
X220090000Y-52405000I150000J0D01*
G01*
X221740000Y-52405000D01*
G75*
G02*
X221890000Y-52555000I0J-150000D01*
G01*
X221890000Y-52855000D01*
G75*
G02*
X221740000Y-53005000I-150000J0D01*
G01*
X220090000Y-53005000D01*
G75*
G02*
X219940000Y-52855000I0J150000D01*
G01*
G37*
G36*
G01*
X219940000Y-51585000D02*
X219940000Y-51285000D01*
G75*
G02*
X220090000Y-51135000I150000J0D01*
G01*
X221740000Y-51135000D01*
G75*
G02*
X221890000Y-51285000I0J-150000D01*
G01*
X221890000Y-51585000D01*
G75*
G02*
X221740000Y-51735000I-150000J0D01*
G01*
X220090000Y-51735000D01*
G75*
G02*
X219940000Y-51585000I0J150000D01*
G01*
G37*
G36*
G01*
X219940000Y-50315000D02*
X219940000Y-50015000D01*
G75*
G02*
X220090000Y-49865000I150000J0D01*
G01*
X221740000Y-49865000D01*
G75*
G02*
X221890000Y-50015000I0J-150000D01*
G01*
X221890000Y-50315000D01*
G75*
G02*
X221740000Y-50465000I-150000J0D01*
G01*
X220090000Y-50465000D01*
G75*
G02*
X219940000Y-50315000I0J150000D01*
G01*
G37*
G36*
G01*
X219940000Y-49045000D02*
X219940000Y-48745000D01*
G75*
G02*
X220090000Y-48595000I150000J0D01*
G01*
X221740000Y-48595000D01*
G75*
G02*
X221890000Y-48745000I0J-150000D01*
G01*
X221890000Y-49045000D01*
G75*
G02*
X221740000Y-49195000I-150000J0D01*
G01*
X220090000Y-49195000D01*
G75*
G02*
X219940000Y-49045000I0J150000D01*
G01*
G37*
G36*
G01*
X219940000Y-47775000D02*
X219940000Y-47475000D01*
G75*
G02*
X220090000Y-47325000I150000J0D01*
G01*
X221740000Y-47325000D01*
G75*
G02*
X221890000Y-47475000I0J-150000D01*
G01*
X221890000Y-47775000D01*
G75*
G02*
X221740000Y-47925000I-150000J0D01*
G01*
X220090000Y-47925000D01*
G75*
G02*
X219940000Y-47775000I0J150000D01*
G01*
G37*
G36*
G01*
X219940000Y-46505000D02*
X219940000Y-46205000D01*
G75*
G02*
X220090000Y-46055000I150000J0D01*
G01*
X221740000Y-46055000D01*
G75*
G02*
X221890000Y-46205000I0J-150000D01*
G01*
X221890000Y-46505000D01*
G75*
G02*
X221740000Y-46655000I-150000J0D01*
G01*
X220090000Y-46655000D01*
G75*
G02*
X219940000Y-46505000I0J150000D01*
G01*
G37*
G36*
G01*
X161458000Y-65555000D02*
X161458000Y-65255000D01*
G75*
G02*
X161608000Y-65105000I150000J0D01*
G01*
X163258000Y-65105000D01*
G75*
G02*
X163408000Y-65255000I0J-150000D01*
G01*
X163408000Y-65555000D01*
G75*
G02*
X163258000Y-65705000I-150000J0D01*
G01*
X161608000Y-65705000D01*
G75*
G02*
X161458000Y-65555000I0J150000D01*
G01*
G37*
G36*
G01*
X161458000Y-66825000D02*
X161458000Y-66525000D01*
G75*
G02*
X161608000Y-66375000I150000J0D01*
G01*
X163258000Y-66375000D01*
G75*
G02*
X163408000Y-66525000I0J-150000D01*
G01*
X163408000Y-66825000D01*
G75*
G02*
X163258000Y-66975000I-150000J0D01*
G01*
X161608000Y-66975000D01*
G75*
G02*
X161458000Y-66825000I0J150000D01*
G01*
G37*
G36*
G01*
X161458000Y-68095000D02*
X161458000Y-67795000D01*
G75*
G02*
X161608000Y-67645000I150000J0D01*
G01*
X163258000Y-67645000D01*
G75*
G02*
X163408000Y-67795000I0J-150000D01*
G01*
X163408000Y-68095000D01*
G75*
G02*
X163258000Y-68245000I-150000J0D01*
G01*
X161608000Y-68245000D01*
G75*
G02*
X161458000Y-68095000I0J150000D01*
G01*
G37*
G36*
G01*
X161458000Y-69365000D02*
X161458000Y-69065000D01*
G75*
G02*
X161608000Y-68915000I150000J0D01*
G01*
X163258000Y-68915000D01*
G75*
G02*
X163408000Y-69065000I0J-150000D01*
G01*
X163408000Y-69365000D01*
G75*
G02*
X163258000Y-69515000I-150000J0D01*
G01*
X161608000Y-69515000D01*
G75*
G02*
X161458000Y-69365000I0J150000D01*
G01*
G37*
G36*
G01*
X161458000Y-70635000D02*
X161458000Y-70335000D01*
G75*
G02*
X161608000Y-70185000I150000J0D01*
G01*
X163258000Y-70185000D01*
G75*
G02*
X163408000Y-70335000I0J-150000D01*
G01*
X163408000Y-70635000D01*
G75*
G02*
X163258000Y-70785000I-150000J0D01*
G01*
X161608000Y-70785000D01*
G75*
G02*
X161458000Y-70635000I0J150000D01*
G01*
G37*
G36*
G01*
X161458000Y-71905000D02*
X161458000Y-71605000D01*
G75*
G02*
X161608000Y-71455000I150000J0D01*
G01*
X163258000Y-71455000D01*
G75*
G02*
X163408000Y-71605000I0J-150000D01*
G01*
X163408000Y-71905000D01*
G75*
G02*
X163258000Y-72055000I-150000J0D01*
G01*
X161608000Y-72055000D01*
G75*
G02*
X161458000Y-71905000I0J150000D01*
G01*
G37*
G36*
G01*
X161458000Y-73175000D02*
X161458000Y-72875000D01*
G75*
G02*
X161608000Y-72725000I150000J0D01*
G01*
X163258000Y-72725000D01*
G75*
G02*
X163408000Y-72875000I0J-150000D01*
G01*
X163408000Y-73175000D01*
G75*
G02*
X163258000Y-73325000I-150000J0D01*
G01*
X161608000Y-73325000D01*
G75*
G02*
X161458000Y-73175000I0J150000D01*
G01*
G37*
G36*
G01*
X166408000Y-73175000D02*
X166408000Y-72875000D01*
G75*
G02*
X166558000Y-72725000I150000J0D01*
G01*
X168208000Y-72725000D01*
G75*
G02*
X168358000Y-72875000I0J-150000D01*
G01*
X168358000Y-73175000D01*
G75*
G02*
X168208000Y-73325000I-150000J0D01*
G01*
X166558000Y-73325000D01*
G75*
G02*
X166408000Y-73175000I0J150000D01*
G01*
G37*
G36*
G01*
X166408000Y-71905000D02*
X166408000Y-71605000D01*
G75*
G02*
X166558000Y-71455000I150000J0D01*
G01*
X168208000Y-71455000D01*
G75*
G02*
X168358000Y-71605000I0J-150000D01*
G01*
X168358000Y-71905000D01*
G75*
G02*
X168208000Y-72055000I-150000J0D01*
G01*
X166558000Y-72055000D01*
G75*
G02*
X166408000Y-71905000I0J150000D01*
G01*
G37*
G36*
G01*
X166408000Y-70635000D02*
X166408000Y-70335000D01*
G75*
G02*
X166558000Y-70185000I150000J0D01*
G01*
X168208000Y-70185000D01*
G75*
G02*
X168358000Y-70335000I0J-150000D01*
G01*
X168358000Y-70635000D01*
G75*
G02*
X168208000Y-70785000I-150000J0D01*
G01*
X166558000Y-70785000D01*
G75*
G02*
X166408000Y-70635000I0J150000D01*
G01*
G37*
G36*
G01*
X166408000Y-69365000D02*
X166408000Y-69065000D01*
G75*
G02*
X166558000Y-68915000I150000J0D01*
G01*
X168208000Y-68915000D01*
G75*
G02*
X168358000Y-69065000I0J-150000D01*
G01*
X168358000Y-69365000D01*
G75*
G02*
X168208000Y-69515000I-150000J0D01*
G01*
X166558000Y-69515000D01*
G75*
G02*
X166408000Y-69365000I0J150000D01*
G01*
G37*
G36*
G01*
X166408000Y-68095000D02*
X166408000Y-67795000D01*
G75*
G02*
X166558000Y-67645000I150000J0D01*
G01*
X168208000Y-67645000D01*
G75*
G02*
X168358000Y-67795000I0J-150000D01*
G01*
X168358000Y-68095000D01*
G75*
G02*
X168208000Y-68245000I-150000J0D01*
G01*
X166558000Y-68245000D01*
G75*
G02*
X166408000Y-68095000I0J150000D01*
G01*
G37*
G36*
G01*
X166408000Y-66825000D02*
X166408000Y-66525000D01*
G75*
G02*
X166558000Y-66375000I150000J0D01*
G01*
X168208000Y-66375000D01*
G75*
G02*
X168358000Y-66525000I0J-150000D01*
G01*
X168358000Y-66825000D01*
G75*
G02*
X168208000Y-66975000I-150000J0D01*
G01*
X166558000Y-66975000D01*
G75*
G02*
X166408000Y-66825000I0J150000D01*
G01*
G37*
G36*
G01*
X166408000Y-65555000D02*
X166408000Y-65255000D01*
G75*
G02*
X166558000Y-65105000I150000J0D01*
G01*
X168208000Y-65105000D01*
G75*
G02*
X168358000Y-65255000I0J-150000D01*
G01*
X168358000Y-65555000D01*
G75*
G02*
X168208000Y-65705000I-150000J0D01*
G01*
X166558000Y-65705000D01*
G75*
G02*
X166408000Y-65555000I0J150000D01*
G01*
G37*
D38*
X199680000Y-127555000D03*
X199680000Y-122555000D03*
D39*
X192680000Y-130655000D03*
X192680000Y-119455000D03*
D38*
X185180000Y-127555000D03*
X185180000Y-125055000D03*
D40*
X185180000Y-122555000D03*
G36*
G01*
X149475000Y-24005000D02*
X149475000Y-22985000D01*
G75*
G02*
X149985000Y-22475000I510000J0D01*
G01*
X151005000Y-22475000D01*
G75*
G02*
X151515000Y-22985000I0J-510000D01*
G01*
X151515000Y-24005000D01*
G75*
G02*
X151005000Y-24515000I-510000J0D01*
G01*
X149985000Y-24515000D01*
G75*
G02*
X149475000Y-24005000I0J510000D01*
G01*
G37*
D23*
X153035000Y-23495000D03*
X155575000Y-23495000D03*
G36*
G01*
X177582000Y-118270000D02*
X177582000Y-119220000D01*
G75*
G02*
X177332000Y-119470000I-250000J0D01*
G01*
X176657000Y-119470000D01*
G75*
G02*
X176407000Y-119220000I0J250000D01*
G01*
X176407000Y-118270000D01*
G75*
G02*
X176657000Y-118020000I250000J0D01*
G01*
X177332000Y-118020000D01*
G75*
G02*
X177582000Y-118270000I0J-250000D01*
G01*
G37*
G36*
G01*
X179657000Y-118270000D02*
X179657000Y-119220000D01*
G75*
G02*
X179407000Y-119470000I-250000J0D01*
G01*
X178732000Y-119470000D01*
G75*
G02*
X178482000Y-119220000I0J250000D01*
G01*
X178482000Y-118270000D01*
G75*
G02*
X178732000Y-118020000I250000J0D01*
G01*
X179407000Y-118020000D01*
G75*
G02*
X179657000Y-118270000I0J-250000D01*
G01*
G37*
G36*
G01*
X205153000Y-119220000D02*
X205153000Y-118270000D01*
G75*
G02*
X205403000Y-118020000I250000J0D01*
G01*
X206078000Y-118020000D01*
G75*
G02*
X206328000Y-118270000I0J-250000D01*
G01*
X206328000Y-119220000D01*
G75*
G02*
X206078000Y-119470000I-250000J0D01*
G01*
X205403000Y-119470000D01*
G75*
G02*
X205153000Y-119220000I0J250000D01*
G01*
G37*
G36*
G01*
X207228000Y-119220000D02*
X207228000Y-118270000D01*
G75*
G02*
X207478000Y-118020000I250000J0D01*
G01*
X208153000Y-118020000D01*
G75*
G02*
X208403000Y-118270000I0J-250000D01*
G01*
X208403000Y-119220000D01*
G75*
G02*
X208153000Y-119470000I-250000J0D01*
G01*
X207478000Y-119470000D01*
G75*
G02*
X207228000Y-119220000I0J250000D01*
G01*
G37*
D28*
X172085000Y-121285000D03*
D12*
X172085000Y-128905000D03*
X175260000Y-128905000D03*
D28*
X175260000Y-121285000D03*
D12*
X178435000Y-121285000D03*
D28*
X178435000Y-128905000D03*
X206375000Y-121285000D03*
D12*
X206375000Y-128905000D03*
X209550000Y-121285000D03*
D28*
X209550000Y-128905000D03*
X212725000Y-128905000D03*
D12*
X212725000Y-121285000D03*
M02*
